<svg width="602" height="111" viewBox="0 0 602 111" fill="none" xmlns="http://www.w3.org/2000/svg">
<path fill-rule="evenodd" clip-rule="evenodd" d="M79.4367 49.7776L65.8723 29.7839H60.6128L76.7535 53.496C76.3496 54.1041 75.9411 54.7215 75.5466 55.3621L75.282 55.8078L57.8739 30.3224C59.6147 28.7116 61.3323 27.2168 62.971 25.8427C70.7744 19.3019 76.9763 15.5 76.9763 15.5C75.6626 16.2427 74.386 16.9855 73.128 17.7329C69.4978 19.8079 66.1183 21.8969 62.971 23.9951C60.0696 25.9263 57.3633 27.862 54.8472 29.7932H52.2569L53.1667 31.1208C52.5401 31.6129 51.9134 32.105 51.3145 32.6017L49.3927 29.7932H44.1378L47.9954 35.4287C36.2554 45.7715 29.6264 55.7382 26.5394 63.8991C22.9092 73.4619 24.0837 79.6592 24.5943 81.5439C25.3788 84.422 26.7947 86.7059 28.4891 88.5953C36.9749 98.0606 51.5095 96.1666 62.9663 92.4901L63.4352 92.3415C73.5226 89.1477 81.5628 84.2502 81.5628 84.2502C75.268 87.4208 68.9268 89.8997 62.9663 91.3852C48.701 94.9365 36.6036 92.7825 32.5185 80.6572L32.3467 80.1234C31.7339 77.4031 31.6133 74.3996 32.4349 70.1335C34.7467 58.0917 41.9838 47.1641 49.9683 38.3022L69.1033 66.248C67.3949 68.778 65.3617 71.4936 62.971 74.1489C57.1776 80.5737 49.3045 86.627 39.0128 88.7299C39.0128 88.7299 50.79 89.7512 62.971 83.9578C68.5415 81.3025 74.2003 77.2267 78.8471 70.9644L90.9121 88.7299H96.167L81.4328 67.0743C81.6649 66.6751 81.9017 66.2619 82.1291 65.8488C82.1594 65.7954 82.1908 65.7395 82.2234 65.6813L82.2858 65.5699C82.4084 65.3506 82.5466 65.1037 82.7001 64.8414L99.0126 88.7253H104.268L85.128 60.7331C85.5875 59.9904 86.0796 59.2012 86.6181 58.3656L107.396 88.7253H112.647L89.1945 54.4801C95.726 44.9823 105.683 33.0659 115.966 30.3085C116.269 30.2297 116.398 30.1904 116.528 30.1505C116.766 30.0776 117.01 30.0029 118.343 29.6818C115.019 29.0133 94.844 29.9881 79.4367 49.7776ZM71.6239 62.2789L52.9996 35.0481C53.566 34.4725 54.1323 33.9061 54.6987 33.3444L72.9423 60.0229C72.8905 60.1124 72.8383 60.2026 72.7857 60.2936L72.7495 60.3563C72.3981 60.9641 72.0275 61.605 71.6239 62.2789Z" fill="black"/>
<path d="M131.675 41.4542L130.129 61.4201L133.485 60.4638L135.3 59.9439L136.707 41.4542H131.675Z" fill="black"/>
<path d="M149.566 35.1966L147.472 39.4767H142.746V60.5892L137.255 63.1238V39.4767H130.268V35.1966H137.255V32.2999L133.485 32.6388L130.63 32.8988V28.3448L146.479 26.9939L149.566 26.734L148.335 31.1997L142.746 31.8403V35.1966H149.566Z" fill="black"/>
<path d="M154.473 49.3227L158.729 45.0473L154.352 41.2175L154.148 41.0411L149.886 45.3165L154.352 49.2159L154.473 49.3227Z" fill="black"/>
<path d="M260.216 63.0262L266.441 32.6341H258.814V28.0801H273.711L272.211 35.8511H280.795C281.338 35.8511 281.7 35.7583 282.02 35.5772L282.201 35.438C282.466 35.2151 282.74 34.8577 283.088 34.3238L283.111 34.2913L287.024 28.0801H293.059L287.294 38.1072C287.113 38.4275 286.834 38.7942 286.477 39.2027C286.152 39.5695 285.743 39.848 285.344 40.0337C284.912 40.159 284.165 40.2472 283.092 40.2565H271.352L267.764 58.658L293.054 58.709L290.645 63.0773L260.216 63.0262Z" fill="black"/>
<path d="M284.564 48.631L283.087 47.1641L279.801 43.8914H273.121L281.063 52.4005C281.477 52.8647 281.848 53.2314 282.205 53.5053C282.521 53.7513 282.809 53.9509 283.092 54.067C283.176 54.1041 283.254 54.1273 283.338 54.1505C283.979 54.378 285.116 54.4755 286.783 54.4755H293.059V50.0562H288.24C287.293 50.0562 286.564 49.9633 286.151 49.8241C285.696 49.643 285.148 49.2299 284.564 48.631Z" fill="black"/>
<path d="M158.78 33.5395L154.51 37.7777L154.352 37.6385L149.886 33.8226L154.199 29.5472L154.352 29.6772L158.78 33.5395Z" fill="black"/>
<path d="M225.441 31.52L220.943 27.6067L216.723 31.7939L221.212 35.7026L225.441 31.52Z" fill="black"/>
<path d="M211.64 33.5393L209.273 38.1908H196.512L212.133 62.5713H203.693L192.519 44.908L181.801 62.5713H173.268L188.476 38.1908H174.271V33.5393H188.936V27.6067H196.015L196.061 33.5393H211.64Z" fill="black"/>
<path d="M218.265 63.2584L226.621 61.0534L228.645 56.2349L228.803 55.8496L228.645 55.8774L224.755 56.5413L224.713 39.4767H215.819V44.0817H218.265V63.2584Z" fill="black"/>
<path d="M239.066 32.532V42.7448H244.191L241.875 47.3405H239.066V59.995L232.609 62.7989V47.3405H228.482V42.7448H232.609V32.532H228.752V27.8852H251.596V58.1056H254.594L252.32 62.5203L245.059 62.5714L245.101 32.532H239.066Z" fill="black"/>
<path d="M143.387 41.4542L144.612 58.4724L146.478 59.3079L149.565 60.682L148.247 41.4542H143.387Z" fill="black"/>
<path d="M160.326 27.1054H166.045V51.3931L168.858 51.2538L167.224 55.7613L166.045 55.8495V61.4201L160.326 63.5834V56.0863L149.969 56.7733V52.3169L160.326 51.6205V27.1054Z" fill="black"/>
<path d="M135.899 72.9326V68.1466H129.883V72.9326H135.899Z" fill="black"/>
<path d="M129.902 89.1896V74.5018H135.932L135.913 87.1842L133.486 87.9919L129.902 89.1896Z" fill="black"/>
<path d="M262.635 72.6727L264.255 68.2812H242.854V89.0595H262.635L264.255 84.7423H249.265V80.6711H261.957L263.345 76.716H249.265V72.6727H262.635Z" fill="black"/>
<path d="M216.129 72.9188V68.0771H239.094L237.167 72.9188H230.636V87.6623L224.327 89.2685V72.9188H216.129Z" fill="black"/>
<path d="M283.088 79.636L281.63 78.313L283.088 76.8971L292.029 68.1884H283.868L283.088 68.9451L275.707 76.0569H274.119V68.2627H267.699V89.1477L274.119 87.8201V80.7919H275.707L284.378 88.9249H293.296L283.088 79.636Z" fill="black"/>
<path d="M191.438 68.0631L197.955 76.0336L204.204 68.0631H211.947L201.024 82.0081V87.6808L194.762 89.2777V82.0499L183.709 68.0631H191.438Z" fill="black"/>
<path d="M162.012 72.6031L163.613 68.0771H143.127V89.2685L146.479 88.3215L149.622 87.4395V81.6275H160.805L162.75 77.055H149.622V72.6031H162.012Z" fill="black"/>
<path d="M175.961 68.3138V84.1389L188.936 84.111L186.995 89.041L169.62 89.027V68.2952L175.961 68.3138Z" fill="black"/>
<path d="M318 39L318 72" stroke="black" stroke-opacity="0.48" stroke-width="2"/>
<path fill-rule="evenodd" clip-rule="evenodd" d="M437.5 84.6584L437.504 84.6611L437.508 84.6637C440.841 86.8854 444.525 88 448.536 88C450.87 88 453.093 87.6314 455.2 86.8885C457.331 86.1574 459.262 85.1788 460.986 83.9485C461.86 83.3455 462.658 82.7016 463.378 82.016C463.409 81.9856 463.463 82.0082 463.463 82.0523V86.5C463.463 86.7761 463.686 87 463.963 87H474C474.276 87 474.5 86.7761 474.5 86.5V39.6546C474.5 39.3249 474.187 39.0855 473.868 39.1722L463.868 41.8995C463.651 41.9588 463.5 42.1564 463.5 42.3819V43.6236C463.5 43.6689 463.444 43.6909 463.413 43.6581C461.437 41.5837 458.961 40.068 456.256 39.1132C454.139 38.3661 451.825 38 449.324 38C445.1 38 441.249 39.0743 437.798 41.2312L437.794 41.2336L437.79 41.236C434.408 43.3884 431.714 46.3662 429.706 50.139L429.703 50.1449C427.741 53.8844 426.775 58.1498 426.775 62.9124C426.775 67.6196 427.742 71.8814 429.699 75.6735C431.644 79.4403 434.242 82.4453 437.5 84.6584ZM462.095 70.5556L462.092 70.5603L462.09 70.5651C461.007 72.7315 459.503 74.4168 457.577 75.6476C455.669 76.8664 453.456 77.489 450.9 77.489C448.41 77.489 446.226 76.8701 444.316 75.6513C442.447 74.4219 440.939 72.7344 439.795 70.56C438.715 68.3396 438.162 65.7982 438.162 62.9124C438.162 60.0859 438.714 57.605 439.792 55.4448C440.937 53.268 442.446 51.579 444.316 50.3486C446.226 49.1298 448.41 48.511 450.9 48.511C453.456 48.511 455.669 49.1336 457.577 50.3524C459.503 51.5832 461.007 53.2685 462.09 55.4349L462.095 55.4446L462.1 55.4543C463.233 57.6127 463.813 60.0898 463.813 62.9124C463.813 65.7966 463.231 68.3359 462.095 70.5556Z" fill="black"/>
<path d="M484.851 42.6404C484.642 42.7056 484.5 42.8989 484.5 43.1176V86.5C484.5 86.7761 484.724 87 485 87H496C496.276 87 496.5 86.7761 496.5 86.5V39.6801C496.5 39.3428 496.173 39.1022 495.851 39.2029L484.851 42.6404Z" fill="black"/>
<path d="M506.848 42.3891C506.641 42.4552 506.5 42.6479 506.5 42.8656V86.5C506.5 86.7761 506.724 87 507 87H517C517.276 87 517.5 86.7761 517.5 86.5V58.2567C517.5 52.6808 522.25 48.5487 528.283 48.5487C533.927 48.5487 537 53.5593 537 58.696V86.5C537 86.7761 537.224 87 537.5 87H547.524C547.8 87 548.024 86.7761 548.024 86.5V58.4324C548.024 52.7578 552.536 48.5487 558.084 48.5487C564.185 48.5487 566.5 53.5904 566.5 58.8718V86.5C566.5 86.7761 566.724 87 567 87H577C577.276 87 577.5 86.7761 577.5 86.5V58.3445C577.5 53.9803 576.905 50.258 575.669 47.2173C574.487 44.164 572.654 41.8243 570.147 40.2758C567.705 38.7312 564.839 38 561.25 38C555.234 38 549.001 41.3976 545.468 46.2457C545.446 46.2765 545.398 46.2715 545.382 46.237C542.707 40.6156 537.26 38 531.25 38C526.275 38 521.033 40.3993 517.586 43.9366C517.555 43.9689 517.5 43.9465 517.5 43.9015V39.6838C517.5 39.3454 517.171 39.1047 516.848 39.2073L506.848 42.3891Z" fill="black"/>
<path d="M342.806 39C342.435 39 342.193 39.3898 342.358 39.7222L365.674 86.7222C365.758 86.8924 365.932 87 366.122 87H373.336C373.523 87 373.694 86.8957 373.78 86.7297L398.084 39.7297C398.256 39.3969 398.014 39 397.64 39H385.675C385.288 39 384.936 39.223 384.771 39.5727L370.366 70.0505C370.275 70.2415 370.004 70.2414 369.914 70.0503L355.547 39.5736C355.382 39.2234 355.029 39 354.642 39H342.806Z" fill="black"/>
<path d="M406.851 42.6404C406.642 42.7056 406.5 42.8989 406.5 43.1176V86.5C406.5 86.7761 406.724 87 407 87H418C418.276 87 418.5 86.7761 418.5 86.5V39.6801C418.5 39.3428 418.173 39.1022 417.851 39.2029L406.851 42.6404Z" fill="black"/>
<path d="M406.5 30C406.5 26.6863 409.186 24 412.5 24C415.814 24 418.5 26.6863 418.5 30C418.5 33.3137 415.814 36 412.5 36C409.186 36 406.5 33.3137 406.5 30Z" fill="black"/>
<path d="M484.5 30C484.5 26.6863 487.186 24 490.5 24C493.814 24 496.5 26.6863 496.5 30C496.5 33.3137 493.814 36 490.5 36C487.186 36 484.5 33.3137 484.5 30Z" fill="black"/>
</svg>
