<svg width="637" height="111" viewBox="0 0 637 111" fill="none" xmlns="http://www.w3.org/2000/svg">
<path fill-rule="evenodd" clip-rule="evenodd" d="M119.5 84.6584L119.504 84.6611L119.508 84.6637C122.841 86.8854 126.525 88 130.536 88C132.87 88 135.093 87.6314 137.2 86.8885C139.331 86.1574 141.262 85.1788 142.986 83.9485C143.86 83.3455 144.658 82.7016 145.378 82.016C145.409 81.9856 145.463 82.0082 145.463 82.0523V86.5C145.463 86.7761 145.686 87 145.963 87H156C156.276 87 156.5 86.7761 156.5 86.5V39.6546C156.5 39.3249 156.187 39.0855 155.868 39.1722L145.868 41.8995C145.651 41.9588 145.5 42.1564 145.5 42.3819V43.6236C145.5 43.6689 145.444 43.6909 145.413 43.6581C143.437 41.5837 140.961 40.068 138.256 39.1132C136.139 38.3661 133.825 38 131.324 38C127.1 38 123.249 39.0743 119.798 41.2312L119.794 41.2336L119.79 41.236C116.408 43.3884 113.714 46.3662 111.706 50.139L111.703 50.1449C109.741 53.8844 108.775 58.1498 108.775 62.9124C108.775 67.6196 109.742 71.8814 111.699 75.6735C113.644 79.4403 116.242 82.4453 119.5 84.6584ZM144.095 70.5556L144.092 70.5603L144.09 70.5651C143.007 72.7315 141.503 74.4168 139.577 75.6476C137.669 76.8664 135.456 77.489 132.9 77.489C130.41 77.489 128.226 76.8701 126.316 75.6513C124.447 74.4219 122.939 72.7344 121.795 70.56C120.715 68.3396 120.162 65.7982 120.162 62.9124C120.162 60.0859 120.714 57.605 121.792 55.4448C122.937 53.268 124.446 51.579 126.316 50.3486C128.226 49.1298 130.41 48.511 132.9 48.511C135.456 48.511 137.669 49.1336 139.577 50.3524C141.503 51.5832 143.007 53.2685 144.09 55.4349L144.095 55.4446L144.1 55.4543C145.233 57.6127 145.813 60.0898 145.813 62.9124C145.813 65.7966 145.231 68.3359 144.095 70.5556Z" fill="#FF3B0F"/>
<path d="M166.851 42.6404C166.642 42.7056 166.5 42.8989 166.5 43.1176V86.5C166.5 86.7761 166.724 87 167 87H178C178.276 87 178.5 86.7761 178.5 86.5V39.6801C178.5 39.3428 178.173 39.1022 177.851 39.2029L166.851 42.6404Z" fill="#FF3B0F"/>
<path d="M188.848 42.3891C188.641 42.4552 188.5 42.6479 188.5 42.8656V86.5C188.5 86.7761 188.724 87 189 87H199C199.276 87 199.5 86.7761 199.5 86.5V58.2567C199.5 52.6808 204.25 48.5487 210.283 48.5487C215.927 48.5487 219 53.5593 219 58.696V86.5C219 86.7761 219.224 87 219.5 87H229.524C229.8 87 230.024 86.7761 230.024 86.5V58.4324C230.024 52.7578 234.536 48.5487 240.084 48.5487C246.185 48.5487 248.5 53.5904 248.5 58.8718V86.5C248.5 86.7761 248.724 87 249 87H259C259.276 87 259.5 86.7761 259.5 86.5V58.3445C259.5 53.9803 258.905 50.258 257.669 47.2173C256.487 44.164 254.654 41.8243 252.147 40.2758C249.705 38.7312 246.839 38 243.25 38C237.234 38 231.001 41.3976 227.468 46.2457C227.446 46.2765 227.398 46.2715 227.382 46.237C224.707 40.6156 219.26 38 213.25 38C208.275 38 203.033 40.3993 199.586 43.9366C199.555 43.9689 199.5 43.9465 199.5 43.9015V39.6838C199.5 39.3454 199.171 39.1047 198.848 39.2073L188.848 42.3891Z" fill="#FF3B0F"/>
<path d="M24.8062 39C24.4352 39 24.1934 39.3898 24.3583 39.7222L47.6738 86.7222C47.7582 86.8924 47.9318 87 48.1217 87H55.3361C55.523 87 55.6944 86.8957 55.7802 86.7297L80.0838 39.7297C80.2559 39.3969 80.0144 39 79.6397 39H67.6752C67.2885 39 66.9364 39.223 66.7711 39.5727L52.3657 70.0505C52.2755 70.2415 52.0037 70.2414 51.9136 70.0503L37.5468 39.5736C37.3817 39.2234 37.0294 39 36.6422 39H24.8062Z" fill="#FF3B0F"/>
<path d="M88.8509 42.6404C88.6421 42.7056 88.5 42.8989 88.5 43.1176V86.5C88.5 86.7761 88.7239 87 89 87H100C100.276 87 100.5 86.7761 100.5 86.5V39.6801C100.5 39.3428 100.173 39.1022 99.8509 39.2029L88.8509 42.6404Z" fill="#FF3B0F"/>
<path d="M88.5 30C88.5 26.6863 91.1863 24 94.5 24C97.8137 24 100.5 26.6863 100.5 30C100.5 33.3137 97.8137 36 94.5 36C91.1863 36 88.5 33.3137 88.5 30Z" fill="#FF3B0F"/>
<path d="M166.5 30C166.5 26.6863 169.186 24 172.5 24C175.814 24 178.5 26.6863 178.5 30C178.5 33.3137 175.814 36 172.5 36C169.186 36 166.5 33.3137 166.5 30Z" fill="#FF3B0F"/>
<path d="M283.5 39L283.5 72" stroke="black" stroke-opacity="0.48" stroke-width="2"/>
<g clip-path="url(#clip0_3863_103231)">
<path fill-rule="evenodd" clip-rule="evenodd" d="M552.491 56.652H530.219V52.172H552.491V56.652ZM529.707 39.116C529.323 40.14 528.683 41.164 527.787 42.188C525.995 43.98 523.179 45.644 519.467 47.18L521.643 51.02C523.179 50.38 524.587 49.612 525.995 48.844V68.556H556.843V48.588H526.379C528.555 47.18 530.347 45.772 531.499 44.364C531.755 44.108 532.011 43.596 532.523 43.084C533.163 43.468 534.187 44.108 535.723 45.004C537.643 46.284 539.435 47.308 540.843 48.46L543.147 45.004C541.867 44.108 540.075 43.084 537.899 41.804C536.107 40.78 534.827 40.14 533.931 39.756V39.244H542.891V35.788H534.571C534.571 35.788 534.571 35.66 534.571 35.532C534.571 35.404 534.571 35.148 534.571 34.892V31.436H541.867V27.98H528.811C529.451 26.7 529.835 25.548 530.347 24.524L526.635 23.5C525.995 25.164 525.227 26.7 524.203 28.492C523.179 30.284 522.027 31.948 520.747 33.484L523.691 35.66H520.235V39.116H529.835H529.707ZM530.475 35.532V35.66H523.947C524.715 34.892 525.611 33.484 526.891 31.436H530.475V35.02C530.475 35.276 530.475 35.404 530.475 35.532ZM552.491 60.236V64.716H530.219V60.236H552.491ZM560.939 27.724H544.299V45.516H560.939V27.724ZM556.843 31.436V41.804H548.395V31.436H556.843ZM570.923 33.74C572.203 32.332 573.483 30.796 574.635 29.004C575.915 27.212 577.067 25.42 577.963 23.628L581.931 25.548C580.779 27.468 579.627 29.132 578.475 30.54C577.323 32.076 576.171 33.356 575.147 34.508C577.963 34.508 581.291 34.252 585.003 33.868C583.595 31.948 582.571 30.668 581.803 29.9L584.875 27.596C585.899 28.748 587.307 30.284 588.843 32.332C590.379 34.252 591.659 36.044 592.555 37.58L589.227 40.14C588.971 39.756 588.715 39.372 588.459 38.86C588.203 38.476 587.947 37.964 587.563 37.452C581.163 38.092 575.275 38.476 569.771 38.604L569.131 34.636C569.899 34.636 570.411 34.38 571.051 33.74H570.923ZM571.307 41.036H589.355V63.692C589.355 65.484 589.099 66.636 588.587 67.404C588.075 68.172 587.051 68.556 585.643 68.812C584.107 69.068 582.699 69.068 581.419 69.068L580.651 64.588C581.547 64.588 582.443 64.716 583.211 64.716C583.979 64.716 584.491 64.716 584.747 64.716C585.003 64.716 585.131 64.46 585.259 64.332C585.259 64.076 585.387 63.692 585.387 63.052V59.468H575.531V69.196H571.435V41.036H571.307ZM585.259 55.5V52.044H575.403V55.5H585.259ZM585.259 48.332V44.876H575.403V48.332H585.259ZM593.067 46.54H597.291V54.092C598.571 53.58 600.107 52.812 601.771 51.916C604.331 50.636 606.763 49.228 608.939 47.82L611.115 51.532C608.683 53.196 606.123 54.604 603.691 55.756C601.515 56.908 599.339 57.676 597.547 58.444V61.772C597.547 62.54 597.547 63.052 597.803 63.308C597.931 63.564 598.315 63.82 598.699 63.948C599.211 63.948 599.979 64.076 600.875 64.076H602.539H604.075C605.099 64.076 605.867 64.076 606.379 63.82C606.891 63.82 607.147 63.436 607.403 63.18C607.531 62.924 607.659 62.284 607.915 61.516C608.171 60.236 608.299 58.828 608.427 57.164L612.523 58.7C612.523 59.98 612.267 61.516 611.883 63.436C611.627 64.588 611.371 65.484 610.987 66.124C610.603 66.764 609.963 67.276 609.067 67.66C608.171 67.916 607.019 68.172 605.611 68.3C604.587 68.3 602.667 68.3 599.595 68.3C596.523 68.3 596.651 68.044 595.755 67.788C594.859 67.532 594.219 67.02 593.963 66.252C593.579 65.484 593.451 64.46 593.451 63.18V46.54H593.067ZM593.067 24.524H597.291V32.076C598.315 31.692 599.723 31.052 601.515 30.284C604.587 28.876 606.891 27.596 608.427 26.572L610.475 30.412C609.067 31.308 606.635 32.588 603.051 34.252C600.747 35.276 598.827 36.044 597.291 36.556V38.86C597.291 39.628 597.291 40.268 597.547 40.524C597.547 40.78 597.931 41.036 598.315 41.164C598.699 41.164 599.339 41.292 600.363 41.292H602.411C603.307 41.292 604.203 41.292 604.971 41.292C605.611 41.292 606.123 41.292 606.507 41.036C606.763 40.908 607.019 40.652 607.147 40.268C607.147 40.012 607.403 39.372 607.531 38.732C607.659 37.58 607.787 36.556 607.915 35.404L612.011 36.94C611.883 38.476 611.755 39.628 611.499 40.652C611.243 41.932 610.987 42.828 610.603 43.468C610.219 44.108 609.579 44.62 608.683 45.004C607.787 45.388 606.507 45.516 604.971 45.644H598.571C596.651 45.644 595.243 45.132 594.475 44.492C593.707 43.724 593.323 42.572 593.323 40.524V24.524H593.067ZM489.643 33.74V45.26H470.699V49.484H485.291C483.883 51.66 482.091 53.708 480.043 55.628C477.099 58.444 473.643 60.748 469.419 62.54L471.979 66.636C475.691 64.844 479.147 62.54 482.475 59.468C484.011 58.188 485.291 56.524 486.571 54.86C487.851 53.068 488.747 51.404 489.643 49.356V69.324H494.123V49.484C495.659 53.196 497.963 56.396 501.035 59.212C504.235 62.156 507.819 64.588 511.787 66.38L514.091 62.156C510.123 60.492 506.539 58.188 503.467 55.244C501.291 53.196 499.499 51.148 498.219 49.228H513.067V45.004H493.995V33.484H511.147V29.388H493.995V24.012H489.515V29.772H472.491V33.868H489.515L489.643 33.74ZM482.603 37.836C481.195 36.172 479.915 34.892 478.891 33.868L475.691 36.556C476.715 37.58 477.867 38.86 479.147 40.652C480.555 42.444 481.707 43.852 482.475 45.004L485.803 42.06C485.547 41.676 485.291 41.292 485.035 41.036C484.267 40.012 483.499 38.988 482.603 37.836ZM504.875 33.868C504.107 35.148 502.955 36.684 501.419 38.476C500.139 40.012 498.987 41.292 497.835 42.316L501.163 45.26C501.931 44.492 503.211 43.084 504.875 41.036C506.283 39.372 507.307 37.836 508.331 36.428L504.875 33.996V33.868ZM440.491 35.148V42.828H422.059V47.052H436.523C434.859 49.868 432.939 52.556 430.507 54.988C427.307 58.188 423.979 60.876 420.139 62.924L422.955 66.636C426.795 64.332 430.251 61.644 433.067 58.572C436.267 55.116 438.827 51.404 440.363 47.436V68.94H444.715V47.436C446.379 51.148 448.811 54.86 452.011 58.316C455.211 61.772 458.667 64.588 462.123 66.764L464.811 62.796C461.483 61.004 458.027 58.444 454.699 54.988C452.139 52.428 450.091 49.74 448.555 46.924H463.147V42.7H444.587V35.02H459.947V30.796H444.587V24.268H440.235V30.924H424.875V35.148H440.235H440.491Z" fill="black"/>
<path fill-rule="evenodd" clip-rule="evenodd" d="M457.643 86.8598C457.003 86.4758 456.491 85.8358 456.107 85.0678C455.723 84.2998 455.595 83.4038 455.595 82.3798C455.595 81.3558 455.723 80.4598 456.107 79.6918C456.491 78.9238 457.003 78.2838 457.643 77.8998C458.283 77.5158 459.051 77.2598 459.947 77.2598C460.843 77.2598 461.611 77.5158 462.251 77.8998C462.891 78.2838 463.403 78.9238 463.787 79.6918C464.171 80.4598 464.299 81.3558 464.299 82.3798C464.299 83.4038 464.043 84.2998 463.787 85.0678C463.403 85.8358 462.891 86.4758 462.251 86.8598C461.611 87.2438 460.843 87.4998 459.947 87.4998C459.051 87.4998 458.283 87.2438 457.643 86.8598ZM457.643 85.1958C458.155 85.8358 459.051 86.2198 459.947 86.2198C460.843 86.2198 461.739 85.8358 462.251 85.1958C462.763 84.5558 463.147 83.5318 463.147 82.3798C463.147 81.2278 462.891 80.2038 462.251 79.5638C461.611 78.9238 460.843 78.5398 459.947 78.5398C459.051 78.5398 458.155 78.9238 457.643 79.5638C457.131 80.2038 456.747 81.2278 456.747 82.3798C456.747 83.5318 457.003 84.5558 457.643 85.1958ZM439.467 86.7318C438.699 86.2198 438.315 85.4518 438.059 84.6838L439.339 84.2998C439.339 84.9398 439.723 85.4518 440.235 85.8358C440.747 86.2198 441.387 86.3478 442.283 86.3478C443.179 86.3478 443.691 86.2198 444.075 85.8358C444.459 85.5798 444.715 85.0678 444.715 84.5558C444.715 84.0438 444.587 83.6598 444.203 83.5318C443.819 83.2758 443.307 83.1478 442.539 83.0198H441.515C440.363 82.7638 439.595 82.3798 439.083 81.9958C438.571 81.4838 438.315 80.9718 438.315 80.2038C438.315 79.4358 438.443 79.1798 438.827 78.7958C439.083 78.4118 439.595 78.0278 440.107 77.7718C440.619 77.5158 441.259 77.3878 442.027 77.3878C442.795 77.3878 443.819 77.6438 444.459 78.0278C445.099 78.5398 445.611 79.0518 445.867 79.9478L444.587 80.3318C444.331 79.8198 444.075 79.3078 443.563 79.0518C443.051 78.7958 442.539 78.6678 441.771 78.6678C441.003 78.6678 440.363 78.7958 440.107 79.1798C439.723 79.4358 439.595 79.8198 439.595 80.3318C439.595 80.8438 439.595 80.8438 439.723 81.0998C439.723 81.3558 440.107 81.4838 440.363 81.6118C440.619 81.7398 441.131 81.8678 441.643 81.9958H442.667C443.691 82.2518 444.587 82.6358 445.099 83.0198C445.611 83.4038 445.867 84.0438 445.867 84.8118C445.867 85.5798 445.739 85.9638 445.355 86.3478C445.099 86.8598 444.587 87.1158 444.075 87.3718C443.563 87.6278 442.923 87.7558 442.155 87.7558C441.003 87.7558 439.979 87.4998 439.339 86.9878L439.467 86.7318ZM421.547 77.5158H420.139L423.723 87.3718H425.515L429.099 77.5158H427.819L424.747 86.2198L421.675 77.5158H421.547ZM432.939 77.5158V87.3718H434.219V77.5158H432.939ZM450.091 77.5158V87.3718H451.371V77.5158H450.091ZM470.699 77.5158H468.651V87.3718H469.931V78.5398L474.667 87.3718H476.715V77.5158H475.435V86.2198L470.699 77.5158ZM556.715 85.0678C557.099 85.8358 557.611 86.4758 558.251 86.8598C558.891 87.2438 559.659 87.4998 560.555 87.4998C561.451 87.4998 561.963 87.3718 562.475 87.1158C562.987 86.8598 563.499 86.3478 563.883 85.8358V87.3718H565.163V82.2518H560.555V83.4038H563.883C563.883 84.2998 563.499 85.0678 562.987 85.5798C562.475 86.0918 561.707 86.3478 560.811 86.3478C559.915 86.3478 559.019 85.9638 558.507 85.3238C557.995 84.6838 557.739 83.6598 557.739 82.3798C557.739 81.0998 557.995 80.2038 558.507 79.5638C559.019 78.9238 559.915 78.5398 560.939 78.5398C561.963 78.5398 562.347 78.7958 562.731 79.0518C563.243 79.4358 563.627 79.9478 563.755 80.5878L565.035 80.2038C564.779 79.3078 564.267 78.5398 563.499 78.0278C562.731 77.5158 561.963 77.2598 560.939 77.2598C559.915 77.2598 559.275 77.5158 558.635 77.8998C557.995 78.2838 557.483 78.9238 557.099 79.6918C556.715 80.4598 556.587 81.3558 556.587 82.3798C556.587 83.4038 556.715 84.2998 557.099 85.0678H556.715ZM490.155 77.5158V87.3718H491.435V77.5158H490.155ZM498.091 77.5158H496.043V87.3718H497.323V78.5398L502.059 87.3718H504.107V77.5158H502.827V86.2198L498.091 77.5158ZM515.627 78.5398H512.427V87.2438H511.147V78.5398H507.947V77.3878H515.755V78.5398H515.627ZM520.875 78.5398H526.251V77.3878H519.595V87.2438H526.379V86.0918H520.875V82.6358H525.867V81.4838H520.875V78.5398ZM531.883 86.0918H536.875V87.2438H530.603V77.3878H531.883V86.0918ZM546.987 86.0918H541.995V77.3878H540.715V87.2438H546.987V86.0918ZM550.827 87.2438V77.3878H552.107V87.2438H550.827ZM576.171 78.5398H570.795V81.4838H575.787V82.6358H570.795V86.0918H576.299V87.2438H569.515V77.3878H576.171V78.5398ZM582.571 77.5158H580.523V87.3718H581.803V78.5398L586.539 87.3718H588.587V77.5158H587.307V86.2198L582.571 77.5158ZM594.731 86.8598C594.091 86.4758 593.579 85.8358 593.195 85.0678C592.811 84.2998 592.683 83.4038 592.683 82.3798C592.683 81.3558 592.811 80.4598 593.195 79.6918C593.579 78.9238 594.091 78.2838 594.731 77.8998C595.371 77.5158 596.139 77.2598 597.035 77.2598C597.931 77.2598 598.955 77.5158 599.723 78.1558C600.491 78.7958 600.875 79.4358 601.259 80.4598L599.979 80.8438C599.723 80.0758 599.467 79.5638 598.955 79.1798C598.443 78.7958 597.803 78.5398 597.035 78.5398C596.267 78.5398 595.243 78.9238 594.731 79.5638C594.219 80.2038 593.835 81.2278 593.835 82.3798C593.835 83.5318 594.091 84.5558 594.731 85.1958C595.371 85.8358 596.011 86.2198 597.035 86.2198C598.059 86.2198 598.443 85.9638 598.955 85.5798C599.467 85.1958 599.723 84.5558 599.979 83.7878L601.259 84.0438C601.003 85.0678 600.491 85.8358 599.851 86.4758C599.083 87.1158 598.187 87.3718 597.163 87.3718C596.139 87.3718 595.499 87.1158 594.859 86.7318L594.731 86.8598ZM606.635 78.5398H612.011V77.3878H605.355V87.2438H612.139V86.0918H606.635V82.6358H611.627V81.4838H606.635V78.5398Z" fill="black"/>
<path d="M321.196 87.5005H320.556C312.876 87.5005 306.86 80.8445 307.5 73.2925C307.756 71.1165 308.012 68.9405 308.396 67.0205C310.572 54.8605 313.26 46.6685 318.508 38.2205C323.756 30.0285 331.564 26.0605 339.372 26.0605C347.18 26.0605 353.964 29.7725 359.084 36.9405C362.924 42.4445 365.356 48.9725 367.788 55.3725C369.58 60.2365 372.524 70.8605 377.004 70.8605C381.484 70.8605 384.428 63.8205 385.324 58.5725C385.964 54.0925 385.836 48.8445 385.836 48.8445C394.028 48.8445 400.3 56.3965 398.636 64.4605C397.612 69.4525 395.948 74.5725 393.26 78.1565C388.396 84.5565 382.252 86.0925 376.62 86.0925C361.26 86.0925 355.628 66.5085 353.836 61.0045C349.484 47.9485 345.26 41.5485 339.372 41.5485C322.604 41.5485 321.196 87.3725 321.196 87.5005Z" fill="black"/>
<path d="M391.979 41.4205C396.221 41.4205 399.659 37.9821 399.659 33.7405C399.659 29.499 396.221 26.0605 391.979 26.0605C387.738 26.0605 384.299 29.499 384.299 33.7405C384.299 37.9821 387.738 41.4205 391.979 41.4205Z" fill="#F15512"/>
</g>
<defs>
<clipPath id="clip0_3863_103231">
<rect width="304.64" height="64" fill="white" transform="translate(307.5 23.5)"/>
</clipPath>
</defs>
</svg>
