<svg width="637" height="111" viewBox="0 0 637 111" fill="none" xmlns="http://www.w3.org/2000/svg">
<g clip-path="url(#clip0_3863_103267)">
<path fill-rule="evenodd" clip-rule="evenodd" d="M268.991 56.652H246.719V52.172H268.991V56.652ZM246.207 39.116C245.823 40.14 245.183 41.164 244.287 42.188C242.495 43.98 239.679 45.644 235.967 47.18L238.143 51.02C239.679 50.38 241.087 49.612 242.495 48.844V68.556H273.343V48.588H242.879C245.055 47.18 246.847 45.772 247.999 44.364C248.255 44.108 248.511 43.596 249.023 43.084C249.663 43.468 250.687 44.108 252.223 45.004C254.143 46.284 255.935 47.308 257.343 48.46L259.647 45.004C258.367 44.108 256.575 43.084 254.399 41.804C252.607 40.78 251.327 40.14 250.431 39.756V39.244H259.391V35.788H251.071C251.071 35.788 251.071 35.66 251.071 35.532C251.071 35.404 251.071 35.148 251.071 34.892V31.436H258.367V27.98H245.311C245.951 26.7 246.335 25.548 246.847 24.524L243.135 23.5C242.495 25.164 241.727 26.7 240.703 28.492C239.679 30.284 238.527 31.948 237.247 33.484L240.191 35.66H236.735V39.116H246.335H246.207ZM246.975 35.532V35.66H240.447C241.215 34.892 242.111 33.484 243.391 31.436H246.975V35.02C246.975 35.276 246.975 35.404 246.975 35.532ZM268.991 60.236V64.716H246.719V60.236H268.991ZM277.439 27.724H260.799V45.516H277.439V27.724ZM273.343 31.436V41.804H264.895V31.436H273.343ZM287.423 33.74C288.703 32.332 289.983 30.796 291.135 29.004C292.415 27.212 293.567 25.42 294.463 23.628L298.431 25.548C297.279 27.468 296.127 29.132 294.975 30.54C293.823 32.076 292.671 33.356 291.647 34.508C294.463 34.508 297.791 34.252 301.503 33.868C300.095 31.948 299.071 30.668 298.303 29.9L301.375 27.596C302.399 28.748 303.807 30.284 305.343 32.332C306.879 34.252 308.159 36.044 309.055 37.58L305.727 40.14C305.471 39.756 305.215 39.372 304.959 38.86C304.703 38.476 304.447 37.964 304.063 37.452C297.663 38.092 291.775 38.476 286.271 38.604L285.631 34.636C286.399 34.636 286.911 34.38 287.551 33.74H287.423ZM287.807 41.036H305.855V63.692C305.855 65.484 305.599 66.636 305.087 67.404C304.575 68.172 303.551 68.556 302.143 68.812C300.607 69.068 299.199 69.068 297.919 69.068L297.151 64.588C298.047 64.588 298.943 64.716 299.711 64.716C300.479 64.716 300.991 64.716 301.247 64.716C301.503 64.716 301.631 64.46 301.759 64.332C301.759 64.076 301.887 63.692 301.887 63.052V59.468H292.031V69.196H287.935V41.036H287.807ZM301.759 55.5V52.044H291.903V55.5H301.759ZM301.759 48.332V44.876H291.903V48.332H301.759ZM309.567 46.54H313.791V54.092C315.071 53.58 316.607 52.812 318.271 51.916C320.831 50.636 323.263 49.228 325.439 47.82L327.615 51.532C325.183 53.196 322.623 54.604 320.191 55.756C318.015 56.908 315.839 57.676 314.047 58.444V61.772C314.047 62.54 314.047 63.052 314.303 63.308C314.431 63.564 314.815 63.82 315.199 63.948C315.711 63.948 316.479 64.076 317.375 64.076H319.039H320.575C321.599 64.076 322.367 64.076 322.879 63.82C323.391 63.82 323.647 63.436 323.903 63.18C324.031 62.924 324.159 62.284 324.415 61.516C324.671 60.236 324.799 58.828 324.927 57.164L329.023 58.7C329.023 59.98 328.767 61.516 328.383 63.436C328.127 64.588 327.871 65.484 327.487 66.124C327.103 66.764 326.463 67.276 325.567 67.66C324.671 67.916 323.519 68.172 322.111 68.3C321.087 68.3 319.167 68.3 316.095 68.3C313.023 68.3 313.151 68.044 312.255 67.788C311.359 67.532 310.719 67.02 310.463 66.252C310.079 65.484 309.951 64.46 309.951 63.18V46.54H309.567ZM309.567 24.524H313.791V32.076C314.815 31.692 316.223 31.052 318.015 30.284C321.087 28.876 323.391 27.596 324.927 26.572L326.975 30.412C325.567 31.308 323.135 32.588 319.551 34.252C317.247 35.276 315.327 36.044 313.791 36.556V38.86C313.791 39.628 313.791 40.268 314.047 40.524C314.047 40.78 314.431 41.036 314.815 41.164C315.199 41.164 315.839 41.292 316.863 41.292H318.911C319.807 41.292 320.703 41.292 321.471 41.292C322.111 41.292 322.623 41.292 323.007 41.036C323.263 40.908 323.519 40.652 323.647 40.268C323.647 40.012 323.903 39.372 324.031 38.732C324.159 37.58 324.287 36.556 324.415 35.404L328.511 36.94C328.383 38.476 328.255 39.628 327.999 40.652C327.743 41.932 327.487 42.828 327.103 43.468C326.719 44.108 326.079 44.62 325.183 45.004C324.287 45.388 323.007 45.516 321.471 45.644H315.071C313.151 45.644 311.743 45.132 310.975 44.492C310.207 43.724 309.823 42.572 309.823 40.524V24.524H309.567ZM206.143 33.74V45.26H187.199V49.484H201.791C200.383 51.66 198.591 53.708 196.543 55.628C193.599 58.444 190.143 60.748 185.919 62.54L188.479 66.636C192.191 64.844 195.647 62.54 198.975 59.468C200.511 58.188 201.791 56.524 203.071 54.86C204.351 53.068 205.247 51.404 206.143 49.356V69.324H210.623V49.484C212.159 53.196 214.463 56.396 217.535 59.212C220.735 62.156 224.319 64.588 228.287 66.38L230.591 62.156C226.623 60.492 223.039 58.188 219.967 55.244C217.791 53.196 215.999 51.148 214.719 49.228H229.567V45.004H210.495V33.484H227.647V29.388H210.495V24.012H206.015V29.772H188.991V33.868H206.015L206.143 33.74ZM199.103 37.836C197.695 36.172 196.415 34.892 195.391 33.868L192.191 36.556C193.215 37.58 194.367 38.86 195.647 40.652C197.055 42.444 198.207 43.852 198.975 45.004L202.303 42.06C202.047 41.676 201.791 41.292 201.535 41.036C200.767 40.012 199.999 38.988 199.103 37.836ZM221.375 33.868C220.607 35.148 219.455 36.684 217.919 38.476C216.639 40.012 215.487 41.292 214.335 42.316L217.663 45.26C218.431 44.492 219.711 43.084 221.375 41.036C222.783 39.372 223.807 37.836 224.831 36.428L221.375 33.996V33.868ZM156.991 35.148V42.828H138.559V47.052H153.023C151.359 49.868 149.439 52.556 147.007 54.988C143.807 58.188 140.479 60.876 136.639 62.924L139.455 66.636C143.295 64.332 146.751 61.644 149.567 58.572C152.767 55.116 155.327 51.404 156.863 47.436V68.94H161.215V47.436C162.879 51.148 165.311 54.86 168.511 58.316C171.711 61.772 175.167 64.588 178.623 66.764L181.311 62.796C177.983 61.004 174.527 58.444 171.199 54.988C168.639 52.428 166.591 49.74 165.055 46.924H179.647V42.7H161.087V35.02H176.447V30.796H161.087V24.268H156.735V30.924H141.375V35.148H156.735H156.991Z" fill="white"/>
<path fill-rule="evenodd" clip-rule="evenodd" d="M174.143 86.8598C173.503 86.4758 172.991 85.8358 172.607 85.0678C172.223 84.2998 172.095 83.4038 172.095 82.3798C172.095 81.3558 172.223 80.4598 172.607 79.6918C172.991 78.9238 173.503 78.2838 174.143 77.8998C174.783 77.5158 175.551 77.2598 176.447 77.2598C177.343 77.2598 178.111 77.5158 178.751 77.8998C179.391 78.2838 179.903 78.9238 180.287 79.6918C180.671 80.4598 180.799 81.3558 180.799 82.3798C180.799 83.4038 180.543 84.2998 180.287 85.0678C179.903 85.8358 179.391 86.4758 178.751 86.8598C178.111 87.2438 177.343 87.4998 176.447 87.4998C175.551 87.4998 174.783 87.2438 174.143 86.8598ZM174.143 85.1958C174.655 85.8358 175.551 86.2198 176.447 86.2198C177.343 86.2198 178.239 85.8358 178.751 85.1958C179.263 84.5558 179.647 83.5318 179.647 82.3798C179.647 81.2278 179.391 80.2038 178.751 79.5638C178.111 78.9238 177.343 78.5398 176.447 78.5398C175.551 78.5398 174.655 78.9238 174.143 79.5638C173.631 80.2038 173.247 81.2278 173.247 82.3798C173.247 83.5318 173.503 84.5558 174.143 85.1958ZM155.967 86.7318C155.199 86.2198 154.815 85.4518 154.559 84.6838L155.839 84.2998C155.839 84.9398 156.223 85.4518 156.735 85.8358C157.247 86.2198 157.887 86.3478 158.783 86.3478C159.679 86.3478 160.191 86.2198 160.575 85.8358C160.959 85.5798 161.215 85.0678 161.215 84.5558C161.215 84.0438 161.087 83.6598 160.703 83.5318C160.319 83.2758 159.807 83.1478 159.039 83.0198H158.015C156.863 82.7638 156.095 82.3798 155.583 81.9958C155.071 81.4838 154.815 80.9718 154.815 80.2038C154.815 79.4358 154.943 79.1798 155.327 78.7958C155.583 78.4118 156.095 78.0278 156.607 77.7718C157.119 77.5158 157.759 77.3878 158.527 77.3878C159.295 77.3878 160.319 77.6438 160.959 78.0278C161.599 78.5398 162.111 79.0518 162.367 79.9478L161.087 80.3318C160.831 79.8198 160.575 79.3078 160.063 79.0518C159.551 78.7958 159.039 78.6678 158.271 78.6678C157.503 78.6678 156.863 78.7958 156.607 79.1798C156.223 79.4358 156.095 79.8198 156.095 80.3318C156.095 80.8438 156.095 80.8438 156.223 81.0998C156.223 81.3558 156.607 81.4838 156.863 81.6118C157.119 81.7398 157.631 81.8678 158.143 81.9958H159.167C160.191 82.2518 161.087 82.6358 161.599 83.0198C162.111 83.4038 162.367 84.0438 162.367 84.8118C162.367 85.5798 162.239 85.9638 161.855 86.3478C161.599 86.8598 161.087 87.1158 160.575 87.3718C160.063 87.6278 159.423 87.7558 158.655 87.7558C157.503 87.7558 156.479 87.4998 155.839 86.9878L155.967 86.7318ZM138.047 77.5158H136.639L140.223 87.3718H142.015L145.599 77.5158H144.319L141.247 86.2198L138.175 77.5158H138.047ZM149.439 77.5158V87.3718H150.719V77.5158H149.439ZM166.591 77.5158V87.3718H167.871V77.5158H166.591ZM187.199 77.5158H185.151V87.3718H186.431V78.5398L191.167 87.3718H193.215V77.5158H191.935V86.2198L187.199 77.5158ZM273.215 85.0678C273.599 85.8358 274.111 86.4758 274.751 86.8598C275.391 87.2438 276.159 87.4998 277.055 87.4998C277.951 87.4998 278.463 87.3718 278.975 87.1158C279.487 86.8598 279.999 86.3478 280.383 85.8358V87.3718H281.663V82.2518H277.055V83.4038H280.383C280.383 84.2998 279.999 85.0678 279.487 85.5798C278.975 86.0918 278.207 86.3478 277.311 86.3478C276.415 86.3478 275.519 85.9638 275.007 85.3238C274.495 84.6838 274.239 83.6598 274.239 82.3798C274.239 81.0998 274.495 80.2038 275.007 79.5638C275.519 78.9238 276.415 78.5398 277.439 78.5398C278.463 78.5398 278.847 78.7958 279.231 79.0518C279.743 79.4358 280.127 79.9478 280.255 80.5878L281.535 80.2038C281.279 79.3078 280.767 78.5398 279.999 78.0278C279.231 77.5158 278.463 77.2598 277.439 77.2598C276.415 77.2598 275.775 77.5158 275.135 77.8998C274.495 78.2838 273.983 78.9238 273.599 79.6918C273.215 80.4598 273.087 81.3558 273.087 82.3798C273.087 83.4038 273.215 84.2998 273.599 85.0678H273.215ZM206.655 77.5158V87.3718H207.935V77.5158H206.655ZM214.591 77.5158H212.543V87.3718H213.823V78.5398L218.559 87.3718H220.607V77.5158H219.327V86.2198L214.591 77.5158ZM232.127 78.5398H228.927V87.2438H227.647V78.5398H224.447V77.3878H232.255V78.5398H232.127ZM237.375 78.5398H242.751V77.3878H236.095V87.2438H242.879V86.0918H237.375V82.6358H242.367V81.4838H237.375V78.5398ZM248.383 86.0918H253.375V87.2438H247.103V77.3878H248.383V86.0918ZM263.487 86.0918H258.495V77.3878H257.215V87.2438H263.487V86.0918ZM267.327 87.2438V77.3878H268.607V87.2438H267.327ZM292.671 78.5398H287.295V81.4838H292.287V82.6358H287.295V86.0918H292.799V87.2438H286.015V77.3878H292.671V78.5398ZM299.071 77.5158H297.023V87.3718H298.303V78.5398L303.039 87.3718H305.087V77.5158H303.807V86.2198L299.071 77.5158ZM311.231 86.8598C310.591 86.4758 310.079 85.8358 309.695 85.0678C309.311 84.2998 309.183 83.4038 309.183 82.3798C309.183 81.3558 309.311 80.4598 309.695 79.6918C310.079 78.9238 310.591 78.2838 311.231 77.8998C311.871 77.5158 312.639 77.2598 313.535 77.2598C314.431 77.2598 315.455 77.5158 316.223 78.1558C316.991 78.7958 317.375 79.4358 317.759 80.4598L316.479 80.8438C316.223 80.0758 315.967 79.5638 315.455 79.1798C314.943 78.7958 314.303 78.5398 313.535 78.5398C312.767 78.5398 311.743 78.9238 311.231 79.5638C310.719 80.2038 310.335 81.2278 310.335 82.3798C310.335 83.5318 310.591 84.5558 311.231 85.1958C311.871 85.8358 312.511 86.2198 313.535 86.2198C314.559 86.2198 314.943 85.9638 315.455 85.5798C315.967 85.1958 316.223 84.5558 316.479 83.7878L317.759 84.0438C317.503 85.0678 316.991 85.8358 316.351 86.4758C315.583 87.1158 314.687 87.3718 313.663 87.3718C312.639 87.3718 311.999 87.1158 311.359 86.7318L311.231 86.8598ZM323.135 78.5398H328.511V77.3878H321.855V87.2438H328.639V86.0918H323.135V82.6358H328.127V81.4838H323.135V78.5398Z" fill="white"/>
<path d="M37.6958 87.5005H37.0558C29.3758 87.5005 23.3598 80.8445 23.9998 73.2925C24.2558 71.1165 24.5118 68.9405 24.8958 67.0205C27.0718 54.8605 29.7598 46.6685 35.0078 38.2205C40.2558 30.0285 48.0638 26.0605 55.8718 26.0605C63.6798 26.0605 70.4638 29.7725 75.5838 36.9405C79.4238 42.4445 81.8558 48.9725 84.2878 55.3725C86.0798 60.2365 89.0238 70.8605 93.5038 70.8605C97.9838 70.8605 100.928 63.8205 101.824 58.5725C102.464 54.0925 102.336 48.8445 102.336 48.8445C110.528 48.8445 116.8 56.3965 115.136 64.4605C114.112 69.4525 112.448 74.5725 109.76 78.1565C104.896 84.5565 98.7518 86.0925 93.1198 86.0925C77.7598 86.0925 72.1278 66.5085 70.3358 61.0045C65.9838 47.9485 61.7598 41.5485 55.8718 41.5485C39.1038 41.5485 37.6958 87.3725 37.6958 87.5005Z" fill="white"/>
<path d="M108.479 41.4205C112.721 41.4205 116.159 37.9821 116.159 33.7405C116.159 29.499 112.721 26.0605 108.479 26.0605C104.238 26.0605 100.799 29.499 100.799 33.7405C100.799 37.9821 104.238 41.4205 108.479 41.4205Z" fill="#F15512"/>
</g>
<path d="M352.64 39L352.64 72" stroke="white" stroke-opacity="0.48" stroke-width="2"/>
<path fill-rule="evenodd" clip-rule="evenodd" d="M472.14 84.6584L472.144 84.6611L472.148 84.6637C475.481 86.8854 479.166 88 483.176 88C485.51 88 487.733 87.6314 489.84 86.8885C491.971 86.1574 493.902 85.1788 495.626 83.9485C496.5 83.3455 497.298 82.7016 498.018 82.016C498.05 81.9856 498.103 82.0082 498.103 82.0523V86.5C498.103 86.7761 498.327 87 498.603 87H508.64C508.916 87 509.14 86.7761 509.14 86.5V39.6546C509.14 39.3249 508.827 39.0855 508.509 39.1722L498.509 41.8995C498.291 41.9588 498.14 42.1564 498.14 42.3819V43.6236C498.14 43.6689 498.085 43.6909 498.053 43.6581C496.078 41.5837 493.601 40.068 490.896 39.1132C488.779 38.3661 486.465 38 483.964 38C479.74 38 475.889 39.0743 472.438 41.2312L472.434 41.2336L472.43 41.236C469.048 43.3884 466.354 46.3662 464.346 50.139L464.343 50.1449C462.381 53.8844 461.416 58.1498 461.416 62.9124C461.416 67.6196 462.382 71.8814 464.34 75.6735C466.284 79.4403 468.882 82.4453 472.14 84.6584ZM496.735 70.5556L496.732 70.5603L496.73 70.5651C495.647 72.7315 494.144 74.4168 492.217 75.6476C490.309 76.8664 488.096 77.489 485.54 77.489C483.05 77.489 480.866 76.8701 478.956 75.6513C477.088 74.4219 475.579 72.7344 474.435 70.56C473.355 68.3396 472.802 65.7982 472.802 62.9124C472.802 60.0859 473.355 57.605 474.433 55.4448C475.577 53.268 477.086 51.579 478.956 50.3486C480.866 49.1298 483.05 48.511 485.54 48.511C488.096 48.511 490.309 49.1336 492.217 50.3524C494.144 51.5832 495.647 53.2685 496.73 55.4349L496.735 55.4446L496.74 55.4543C497.873 57.6127 498.453 60.0898 498.453 62.9124C498.453 65.7966 497.872 68.3359 496.735 70.5556Z" fill="#FF3B0F"/>
<path d="M519.491 42.6404C519.282 42.7056 519.14 42.8989 519.14 43.1176V86.5C519.14 86.7761 519.364 87 519.64 87H530.64C530.916 87 531.14 86.7761 531.14 86.5V39.6801C531.14 39.3428 530.813 39.1022 530.491 39.2029L519.491 42.6404Z" fill="#FF3B0F"/>
<path d="M541.489 42.3891C541.281 42.4552 541.14 42.6479 541.14 42.8656V86.5C541.14 86.7761 541.364 87 541.64 87H551.64C551.916 87 552.14 86.7761 552.14 86.5V58.2567C552.14 52.6808 556.89 48.5487 562.923 48.5487C568.567 48.5487 571.64 53.5593 571.64 58.696V86.5C571.64 86.7761 571.864 87 572.14 87H582.164C582.44 87 582.664 86.7761 582.664 86.5V58.4324C582.664 52.7578 587.176 48.5487 592.724 48.5487C598.825 48.5487 601.14 53.5904 601.14 58.8718V86.5C601.14 86.7761 601.364 87 601.64 87H611.64C611.916 87 612.14 86.7761 612.14 86.5V58.3445C612.14 53.9803 611.546 50.258 610.309 47.2173C609.127 44.164 607.294 41.8243 604.787 40.2758C602.345 38.7312 599.479 38 595.89 38C589.874 38 583.641 41.3976 580.108 46.2457C580.086 46.2765 580.038 46.2715 580.022 46.237C577.347 40.6156 571.9 38 565.89 38C560.915 38 555.674 40.3993 552.226 43.9366C552.195 43.9689 552.14 43.9465 552.14 43.9015V39.6838C552.14 39.3454 551.811 39.1047 551.489 39.2073L541.489 42.3891Z" fill="#FF3B0F"/>
<path d="M377.446 39C377.075 39 376.834 39.3898 376.998 39.7222L400.314 86.7222C400.398 86.8924 400.572 87 400.762 87H407.976C408.163 87 408.334 86.8957 408.42 86.7297L432.724 39.7297C432.896 39.3969 432.655 39 432.28 39H420.315C419.929 39 419.577 39.223 419.411 39.5727L405.006 70.0505C404.916 70.2415 404.644 70.2414 404.554 70.0503L390.187 39.5736C390.022 39.2234 389.669 39 389.282 39H377.446Z" fill="#FF3B0F"/>
<path d="M441.491 42.6404C441.282 42.7056 441.14 42.8989 441.14 43.1176V86.5C441.14 86.7761 441.364 87 441.64 87H452.64C452.916 87 453.14 86.7761 453.14 86.5V39.6801C453.14 39.3428 452.813 39.1022 452.491 39.2029L441.491 42.6404Z" fill="#FF3B0F"/>
<path d="M441.14 30C441.14 26.6863 443.826 24 447.14 24C450.454 24 453.14 26.6863 453.14 30C453.14 33.3137 450.454 36 447.14 36C443.826 36 441.14 33.3137 441.14 30Z" fill="#FF3B0F"/>
<path d="M519.14 30C519.14 26.6863 521.826 24 525.14 24C528.454 24 531.14 26.6863 531.14 30C531.14 33.3137 528.454 36 525.14 36C521.826 36 519.14 33.3137 519.14 30Z" fill="#FF3B0F"/>
<defs>
<clipPath id="clip0_3863_103267">
<rect width="304.64" height="64" fill="white" transform="translate(24 23.5)"/>
</clipPath>
</defs>
</svg>
