<svg width="602" height="111" viewBox="0 0 602 111" fill="none" xmlns="http://www.w3.org/2000/svg">
<path fill-rule="evenodd" clip-rule="evenodd" d="M119.5 84.6584L119.504 84.6611L119.508 84.6637C122.841 86.8854 126.525 88 130.536 88C132.87 88 135.093 87.6314 137.2 86.8885C139.331 86.1574 141.262 85.1788 142.986 83.9485C143.86 83.3455 144.658 82.7016 145.378 82.016C145.409 81.9856 145.463 82.0082 145.463 82.0523V86.5C145.463 86.7761 145.686 87 145.963 87H156C156.276 87 156.5 86.7761 156.5 86.5V39.6546C156.5 39.3249 156.187 39.0855 155.868 39.1722L145.868 41.8995C145.651 41.9588 145.5 42.1564 145.5 42.3819V43.6236C145.5 43.6689 145.444 43.6909 145.413 43.6581C143.437 41.5837 140.961 40.068 138.256 39.1132C136.139 38.3661 133.825 38 131.324 38C127.1 38 123.249 39.0743 119.798 41.2312L119.794 41.2336L119.79 41.236C116.408 43.3884 113.714 46.3662 111.706 50.139L111.703 50.1449C109.741 53.8844 108.775 58.1498 108.775 62.9124C108.775 67.6196 109.742 71.8814 111.699 75.6735C113.644 79.4403 116.242 82.4453 119.5 84.6584ZM144.095 70.5556L144.092 70.5603L144.09 70.5651C143.007 72.7315 141.503 74.4168 139.577 75.6476C137.669 76.8664 135.456 77.489 132.9 77.489C130.41 77.489 128.226 76.8701 126.316 75.6513C124.447 74.4219 122.939 72.7344 121.795 70.56C120.715 68.3396 120.162 65.7982 120.162 62.9124C120.162 60.0859 120.714 57.605 121.792 55.4448C122.937 53.268 124.446 51.579 126.316 50.3486C128.226 49.1298 130.41 48.511 132.9 48.511C135.456 48.511 137.669 49.1336 139.577 50.3524C141.503 51.5832 143.007 53.2685 144.09 55.4349L144.095 55.4446L144.1 55.4543C145.233 57.6127 145.813 60.0898 145.813 62.9124C145.813 65.7966 145.231 68.3359 144.095 70.5556Z" fill="#FF3B0F"/>
<path d="M166.851 42.6404C166.642 42.7056 166.5 42.8989 166.5 43.1176V86.5C166.5 86.7761 166.724 87 167 87H178C178.276 87 178.5 86.7761 178.5 86.5V39.6801C178.5 39.3428 178.173 39.1022 177.851 39.2029L166.851 42.6404Z" fill="#FF3B0F"/>
<path d="M188.848 42.3891C188.641 42.4552 188.5 42.6479 188.5 42.8656V86.5C188.5 86.7761 188.724 87 189 87H199C199.276 87 199.5 86.7761 199.5 86.5V58.2567C199.5 52.6808 204.25 48.5487 210.283 48.5487C215.927 48.5487 219 53.5593 219 58.696V86.5C219 86.7761 219.224 87 219.5 87H229.524C229.8 87 230.024 86.7761 230.024 86.5V58.4324C230.024 52.7578 234.536 48.5487 240.084 48.5487C246.185 48.5487 248.5 53.5904 248.5 58.8718V86.5C248.5 86.7761 248.724 87 249 87H259C259.276 87 259.5 86.7761 259.5 86.5V58.3445C259.5 53.9803 258.905 50.258 257.669 47.2173C256.487 44.164 254.654 41.8243 252.147 40.2758C249.705 38.7312 246.839 38 243.25 38C237.234 38 231.001 41.3976 227.468 46.2457C227.446 46.2765 227.398 46.2715 227.382 46.237C224.707 40.6156 219.26 38 213.25 38C208.275 38 203.033 40.3993 199.586 43.9366C199.555 43.9689 199.5 43.9465 199.5 43.9015V39.6838C199.5 39.3454 199.171 39.1047 198.848 39.2073L188.848 42.3891Z" fill="#FF3B0F"/>
<path d="M24.8062 39C24.4352 39 24.1934 39.3898 24.3583 39.7222L47.6738 86.7222C47.7582 86.8924 47.9318 87 48.1217 87H55.3361C55.523 87 55.6944 86.8957 55.7802 86.7297L80.0838 39.7297C80.2559 39.3969 80.0144 39 79.6397 39H67.6752C67.2885 39 66.9364 39.223 66.7711 39.5727L52.3657 70.0505C52.2755 70.2415 52.0037 70.2414 51.9136 70.0503L37.5468 39.5736C37.3817 39.2234 37.0294 39 36.6422 39H24.8062Z" fill="#FF3B0F"/>
<path d="M88.8509 42.6404C88.6421 42.7056 88.5 42.8989 88.5 43.1176V86.5C88.5 86.7761 88.7239 87 89 87H100C100.276 87 100.5 86.7761 100.5 86.5V39.6801C100.5 39.3428 100.173 39.1022 99.8509 39.2029L88.8509 42.6404Z" fill="#FF3B0F"/>
<path d="M88.5 30C88.5 26.6863 91.1863 24 94.5 24C97.8137 24 100.5 26.6863 100.5 30C100.5 33.3137 97.8137 36 94.5 36C91.1863 36 88.5 33.3137 88.5 30Z" fill="#FF3B0F"/>
<path d="M166.5 30C166.5 26.6863 169.186 24 172.5 24C175.814 24 178.5 26.6863 178.5 30C178.5 33.3137 175.814 36 172.5 36C169.186 36 166.5 33.3137 166.5 30Z" fill="#FF3B0F"/>
<path d="M283.5 39L283.5 72" stroke="white" stroke-opacity="0.48" stroke-width="2"/>
<path fill-rule="evenodd" clip-rule="evenodd" d="M362.937 49.7776L349.372 29.7839H344.113L360.254 53.496C359.85 54.1041 359.441 54.7215 359.047 55.3621L358.782 55.8078L341.374 30.3224C343.115 28.7116 344.832 27.2168 346.471 25.8427C354.274 19.3019 360.476 15.5 360.476 15.5C359.163 16.2427 357.886 16.9855 356.628 17.7329C352.998 19.8079 349.618 21.8969 346.471 23.9951C343.57 25.9263 340.863 27.862 338.347 29.7932H335.757L336.667 31.1208C336.04 31.6129 335.413 32.105 334.815 32.6017L332.893 29.7932H327.638L331.495 35.4287C319.755 45.7715 313.126 55.7382 310.039 63.8991C306.409 73.4619 307.584 79.6592 308.094 81.5439C308.879 84.422 310.295 86.7059 311.989 88.5953C320.475 98.0606 335.01 96.1666 346.466 92.4901L346.935 92.3415C357.023 89.1477 365.063 84.2502 365.063 84.2502C358.768 87.4208 352.427 89.8997 346.466 91.3852C332.201 94.9365 320.104 92.7825 316.018 80.6572L315.847 80.1234C315.234 77.4031 315.113 74.3996 315.935 70.1335C318.247 58.0917 325.484 47.1641 333.468 38.3022L352.603 66.248C350.895 68.778 348.862 71.4936 346.471 74.1489C340.678 80.5737 332.804 86.627 322.513 88.7299C322.513 88.7299 334.29 89.7512 346.471 83.9578C352.042 81.3025 357.7 77.2267 362.347 70.9644L374.412 88.7299H379.667L364.933 67.0743C365.165 66.6751 365.402 66.2619 365.629 65.8488C365.659 65.7954 365.691 65.7395 365.723 65.6813L365.786 65.5699C365.908 65.3506 366.047 65.1037 366.2 64.8414L382.513 88.7253H387.768L368.628 60.7331C369.088 59.9904 369.58 59.2012 370.118 58.3656L390.896 88.7253H396.147L372.694 54.4801C379.226 44.9823 389.183 33.0659 399.466 30.3085C399.769 30.2297 399.898 30.1904 400.028 30.1505C400.266 30.0776 400.51 30.0029 401.843 29.6818C398.519 29.0133 378.344 29.9881 362.937 49.7776ZM355.124 62.2789L336.5 35.0481C337.066 34.4725 337.632 33.9061 338.199 33.3444L356.442 60.0229C356.39 60.1124 356.338 60.2026 356.286 60.2936L356.249 60.3563C355.898 60.9641 355.528 61.605 355.124 62.2789Z" fill="white"/>
<path d="M415.175 41.4542L413.629 61.4201L416.985 60.4638L418.8 59.9439L420.207 41.4542H415.175Z" fill="white"/>
<path d="M433.066 35.1966L430.972 39.4767H426.246V60.5892L420.755 63.1238V39.4767H413.768V35.1966H420.755V32.2999L416.985 32.6388L414.13 32.8988V28.3448L429.979 26.9939L433.066 26.734L431.835 31.1997L426.246 31.8403V35.1966H433.066Z" fill="white"/>
<path d="M437.973 49.3227L442.229 45.0473L437.852 41.2175L437.648 41.0411L433.386 45.3165L437.852 49.2159L437.973 49.3227Z" fill="white"/>
<path d="M543.716 63.0262L549.941 32.6341H542.314V28.0801H557.211L555.711 35.8511H564.295C564.838 35.8511 565.2 35.7583 565.52 35.5772L565.701 35.438C565.966 35.2151 566.24 34.8577 566.588 34.3238L566.611 34.2913L570.524 28.0801H576.559L570.794 38.1072C570.613 38.4275 570.334 38.7942 569.977 39.2027C569.652 39.5695 569.243 39.848 568.844 40.0337C568.412 40.159 567.665 40.2472 566.592 40.2565H554.852L551.264 58.658L576.554 58.709L574.145 63.0773L543.716 63.0262Z" fill="white"/>
<path d="M568.064 48.631L566.587 47.1641L563.301 43.8914H556.621L564.563 52.4005C564.977 52.8647 565.348 53.2314 565.705 53.5053C566.021 53.7513 566.309 53.9509 566.592 54.067C566.676 54.1041 566.754 54.1273 566.838 54.1505C567.479 54.378 568.616 54.4755 570.283 54.4755H576.559V50.0562H571.74C570.793 50.0562 570.064 49.9633 569.651 49.8241C569.196 49.643 568.648 49.2299 568.064 48.631Z" fill="white"/>
<path d="M442.28 33.5395L438.01 37.7777L437.852 37.6385L433.386 33.8226L437.699 29.5472L437.852 29.6772L442.28 33.5395Z" fill="white"/>
<path d="M508.941 31.52L504.443 27.6067L500.223 31.7939L504.712 35.7026L508.941 31.52Z" fill="white"/>
<path d="M495.14 33.5393L492.773 38.1908H480.012L495.633 62.5713H487.193L476.019 44.908L465.301 62.5713H456.768L471.976 38.1908H457.771V33.5393H472.436V27.6067H479.515L479.561 33.5393H495.14Z" fill="white"/>
<path d="M501.765 63.2584L510.121 61.0534L512.145 56.2349L512.303 55.8496L512.145 55.8774L508.255 56.5413L508.213 39.4767H499.319V44.0817H501.765V63.2584Z" fill="white"/>
<path d="M522.566 32.532V42.7448H527.691L525.375 47.3405H522.566V59.995L516.109 62.7989V47.3405H511.982V42.7448H516.109V32.532H512.252V27.8852H535.096V58.1056H538.094L535.82 62.5203L528.559 62.5714L528.601 32.532H522.566Z" fill="white"/>
<path d="M426.887 41.4542L428.112 58.4724L429.978 59.3079L433.065 60.682L431.747 41.4542H426.887Z" fill="white"/>
<path d="M443.826 27.1054H449.545V51.3931L452.358 51.2538L450.724 55.7613L449.545 55.8495V61.4201L443.826 63.5834V56.0863L433.469 56.7733V52.3169L443.826 51.6205V27.1054Z" fill="white"/>
<path d="M419.399 72.9326V68.1466H413.383V72.9326H419.399Z" fill="white"/>
<path d="M413.402 89.1896V74.5018H419.432L419.413 87.1842L416.986 87.9919L413.402 89.1896Z" fill="white"/>
<path d="M546.135 72.6727L547.755 68.2812H526.354V89.0595H546.135L547.755 84.7423H532.765V80.6711H545.457L546.845 76.716H532.765V72.6727H546.135Z" fill="white"/>
<path d="M499.629 72.9188V68.0771H522.594L520.667 72.9188H514.136V87.6623L507.827 89.2685V72.9188H499.629Z" fill="white"/>
<path d="M566.588 79.636L565.13 78.313L566.588 76.8971L575.529 68.1884H567.368L566.588 68.9451L559.207 76.0569H557.619V68.2627H551.199V89.1477L557.619 87.8201V80.7919H559.207L567.878 88.9249H576.796L566.588 79.636Z" fill="white"/>
<path d="M474.938 68.0631L481.455 76.0336L487.704 68.0631H495.447L484.524 82.0081V87.6808L478.262 89.2777V82.0499L467.209 68.0631H474.938Z" fill="white"/>
<path d="M445.512 72.6031L447.113 68.0771H426.627V89.2685L429.979 88.3215L433.122 87.4395V81.6275H444.305L446.25 77.055H433.122V72.6031H445.512Z" fill="white"/>
<path d="M459.461 68.3138V84.1389L472.436 84.111L470.495 89.041L453.12 89.027V68.2952L459.461 68.3138Z" fill="white"/>
</svg>
