<svg width="380" height="169" viewBox="0 0 380 169" fill="none" xmlns="http://www.w3.org/2000/svg">
<path fill-rule="evenodd" clip-rule="evenodd" d="M153.692 97.6206L153.699 97.6249L153.705 97.6291C159.068 101.205 164.998 102.998 171.452 102.998C175.208 102.998 178.787 102.405 182.177 101.21C185.607 100.033 188.715 98.458 191.489 96.4781C192.895 95.5076 194.179 94.4713 195.338 93.3681C195.389 93.3191 195.475 93.3555 195.475 93.4265V100.584C195.475 101.029 195.835 101.389 196.279 101.389H212.433C212.878 101.389 213.238 101.029 213.238 100.584V25.1941C213.238 24.6635 212.733 24.2782 212.221 24.4178L196.128 28.8069C195.778 28.9024 195.535 29.2204 195.535 29.5832V31.5815C195.535 31.6545 195.446 31.6899 195.395 31.6371C192.216 28.2987 188.23 25.8594 183.876 24.3228C180.47 23.1205 176.745 22.5312 172.721 22.5312C165.924 22.5312 159.725 24.2601 154.171 27.7314L154.165 27.7352L154.159 27.739C148.716 31.2031 144.38 35.9954 141.149 42.0671L141.144 42.0765C137.987 48.0947 136.433 54.9592 136.433 62.6239C136.433 70.1992 137.988 77.058 141.138 83.1609C144.267 89.2229 148.449 94.059 153.692 97.6206ZM193.273 74.9243L193.269 74.9319L193.266 74.9396C191.522 78.4261 189.103 81.1383 186.003 83.1191C182.933 85.0806 179.371 86.0826 175.257 86.0826C171.25 86.0826 167.736 85.0866 164.662 83.1251C161.654 81.1465 159.227 78.4308 157.386 74.9314C155.647 71.3581 154.758 67.2681 154.758 62.6239C154.758 58.0751 155.647 54.0824 157.382 50.6059C159.224 47.1027 161.652 44.3845 164.662 42.4043C167.736 40.443 171.25 39.447 175.257 39.447C179.371 39.447 182.933 40.449 186.003 42.4104C189.103 44.3913 191.522 47.1035 193.266 50.59L193.273 50.6057L193.281 50.6211C195.105 54.0947 196.038 58.0814 196.038 62.6239C196.038 67.2655 195.103 71.3521 193.273 74.9243Z" fill="#FF3B0F"/>
<path d="M229.896 29.9992C229.56 30.1042 229.331 30.4153 229.331 30.7672V100.584C229.331 101.029 229.692 101.389 230.136 101.389H247.839C248.283 101.389 248.643 101.029 248.643 100.584V25.2351C248.643 24.6923 248.117 24.3052 247.599 24.4671L229.896 29.9992Z" fill="#FF3B0F"/>
<path d="M265.298 29.5949C264.964 29.7011 264.737 30.0113 264.737 30.3617V100.584C264.737 101.029 265.097 101.389 265.541 101.389H281.635C282.079 101.389 282.44 101.029 282.44 100.584V55.1311C282.44 46.1577 290.084 39.5077 299.793 39.5077C308.877 39.5077 313.822 47.5715 313.822 55.8382V100.584C313.822 101.029 314.182 101.389 314.626 101.389H330.758C331.203 101.389 331.563 101.029 331.563 100.584V55.414C331.563 46.2816 338.825 39.5077 347.753 39.5077C357.571 39.5077 361.297 47.6216 361.297 56.1211V100.584C361.297 101.029 361.658 101.389 362.102 101.389H378.195C378.64 101.389 379 101.029 379 100.584V55.2726C379 48.249 378.043 42.2585 376.054 37.365C374.151 32.4513 371.201 28.6858 367.166 26.1937C363.236 23.708 358.624 22.5312 352.848 22.5312C343.166 22.5312 333.135 27.9991 327.45 35.8014C327.413 35.851 327.337 35.8429 327.311 35.7875C323.006 26.7406 314.24 22.5312 304.568 22.5312C296.562 22.5312 288.126 26.3925 282.578 32.0853C282.528 32.1372 282.44 32.1012 282.44 32.0288V25.241C282.44 24.6964 281.91 24.3091 281.391 24.4743L265.298 29.5949Z" fill="#FF3B0F"/>
<path d="M1.29742 24.1406C0.700346 24.1406 0.311231 24.768 0.576569 25.3029L38.0992 100.942C38.2351 101.216 38.5144 101.389 38.8201 101.389H50.4305C50.7313 101.389 51.0071 101.221 51.1452 100.954L90.2581 25.3149C90.535 24.7793 90.1463 24.1406 89.5433 24.1406H70.2883C69.6659 24.1406 69.0993 24.4995 68.8333 25.0623L45.6502 74.1115C45.5049 74.4189 45.0675 74.4187 44.9225 74.1112L21.8014 25.0637C21.5357 24.5002 20.9687 24.1406 20.3457 24.1406H1.29742Z" fill="#FF3B0F"/>
<path d="M104.367 29.9992C104.031 30.1042 103.802 30.4153 103.802 30.7672V100.584C103.802 101.029 104.163 101.389 104.607 101.389H122.31C122.754 101.389 123.115 101.029 123.115 100.584V25.2351C123.115 24.6923 122.588 24.3052 122.07 24.4671L104.367 29.9992Z" fill="#FF3B0F"/>
<path d="M103.802 9.65605C103.802 4.32316 108.126 0 113.459 0C118.791 0 123.115 4.32316 123.115 9.65605C123.115 14.9889 118.791 19.3121 113.459 19.3121C108.126 19.3121 103.802 14.9889 103.802 9.65605Z" fill="#FF3B0F"/>
<path d="M229.331 9.65605C229.331 4.32316 233.654 0 238.987 0C244.32 0 248.643 4.32316 248.643 9.65605C248.643 14.9889 244.32 19.3121 238.987 19.3121C233.654 19.3121 229.331 14.9889 229.331 9.65605Z" fill="#FF3B0F"/>
<path d="M113.675 146.209C113.571 146.241 113.5 146.338 113.5 146.447V168.139C113.5 168.277 113.612 168.389 113.75 168.389H119.25C119.388 168.389 119.5 168.277 119.5 168.139V144.729C119.5 144.56 119.336 144.44 119.175 144.49L113.675 146.209Z" fill="#222222"/>
<path d="M113.5 139.889C113.5 138.232 114.843 136.889 116.5 136.889C118.157 136.889 119.5 138.232 119.5 139.889C119.5 141.546 118.157 142.889 116.5 142.889C114.843 142.889 113.5 141.546 113.5 139.889Z" fill="#222222"/>
<path d="M312.43 134.897L306.526 136.497C306.526 136.497 306.508 136.51 306.508 136.523V168.462C306.508 168.462 306.521 168.488 306.534 168.488H312.439C312.439 168.488 312.465 168.475 312.465 168.462V134.919C312.465 134.919 312.448 134.889 312.435 134.893" fill="#222222"/>
<path d="M158.46 148.704C157.872 147.191 156.964 146.028 155.719 145.263C154.509 144.498 152.996 144.135 151.215 144.135C148.233 144.135 145.229 145.821 143.478 148.224C143.465 148.237 143.443 148.237 143.435 148.22C142.108 145.432 139.367 144.135 136.389 144.135C133.921 144.135 131.357 145.323 129.65 147.078C129.633 147.096 129.607 147.083 129.607 147.061V144.662C129.607 144.662 129.589 144.632 129.576 144.636L124.169 146.11C124.169 146.11 124.152 146.123 124.152 146.136V168.415C124.152 168.415 124.165 168.441 124.178 168.441H129.585C129.585 168.441 129.611 168.428 129.611 168.415V154.18C129.611 151.414 131.967 149.365 134.958 149.365C137.759 149.365 139.034 151.851 139.034 154.401V168.415C139.034 168.415 139.047 168.441 139.06 168.441H144.481C144.481 168.441 144.507 168.428 144.507 168.415V154.267C144.507 151.453 146.992 149.365 149.746 149.365C152.771 149.365 153.921 151.868 153.921 154.487V168.415C153.921 168.415 153.934 168.441 153.947 168.441H159.355C159.355 168.441 159.381 168.428 159.381 168.415V154.224C159.381 152.058 159.087 150.212 158.473 148.704" fill="#222222"/>
<path d="M207.69 160.228C207.119 161.313 206.367 162.156 205.433 162.769C204.517 163.353 203.467 163.656 202.282 163.677C201.098 163.656 200.047 163.353 199.131 162.769C198.197 162.156 197.445 161.313 196.875 160.228C196.334 159.121 196.062 157.855 196.062 156.415C196.062 154.976 196.339 153.77 196.875 152.689C197.445 151.604 198.197 150.761 199.131 150.148C200.047 149.56 201.098 149.261 202.282 149.24C203.467 149.261 204.517 149.564 205.433 150.148C206.367 150.761 207.119 151.604 207.69 152.689C208.226 153.766 208.502 155.006 208.502 156.415C208.502 157.824 208.226 159.121 207.69 160.228ZM212.726 150.048C211.723 148.163 210.383 146.677 208.693 145.605C206.972 144.528 204.418 143.992 202.287 143.992C200.156 143.992 197.605 144.528 195.88 145.605C194.195 146.681 192.85 148.168 191.848 150.048C190.871 151.915 190.386 154.042 190.386 156.42C190.386 158.797 190.866 160.893 191.843 162.787C192.811 164.667 194.108 166.163 195.734 167.269C197.398 168.38 200.281 168.933 202.282 168.933C204.171 168.933 207.167 168.376 208.831 167.269H208.835C210.461 166.163 211.757 164.663 212.726 162.787C213.702 160.893 214.182 158.771 214.182 156.42C214.182 154.068 213.702 151.915 212.721 150.052" fill="#222222"/>
<path d="M333.136 160.228C332.565 161.313 331.813 162.156 330.879 162.769C329.963 163.353 328.913 163.656 327.728 163.677C326.544 163.656 325.493 163.353 324.577 162.769C323.643 162.156 322.891 161.313 322.321 160.228C321.78 159.121 321.508 157.855 321.508 156.415C321.508 154.976 321.785 153.77 322.321 152.689C322.891 151.604 323.643 150.761 324.577 150.148C325.493 149.56 326.544 149.261 327.728 149.24C328.917 149.261 329.963 149.564 330.879 150.148C331.813 150.761 332.565 151.604 333.136 152.689C333.672 153.766 333.948 155.006 333.948 156.415C333.948 157.824 333.672 159.121 333.136 160.228ZM338.167 150.048C337.164 148.163 335.824 146.677 334.134 145.605C332.414 144.528 329.859 143.992 327.728 143.992C325.597 143.992 323.047 144.528 321.322 145.605C319.636 146.681 318.292 148.168 317.289 150.048C316.312 151.915 315.828 154.042 315.828 156.42C315.828 158.797 316.308 160.893 317.285 162.787C318.253 164.667 319.55 166.163 321.175 167.269C322.839 168.38 325.723 168.933 327.724 168.933C329.613 168.933 332.608 168.376 334.273 167.269H334.277C335.902 166.163 337.199 164.663 338.167 162.787C339.144 160.893 339.624 158.771 339.624 156.42C339.624 154.068 339.144 151.915 338.163 150.052" fill="#222222"/>
<path d="M296.648 160.218C296.078 161.303 295.326 162.146 294.392 162.755C293.476 163.339 292.425 163.642 291.241 163.663C290.057 163.642 289.006 163.339 288.09 162.755C287.766 162.548 286.568 161.761 285.833 160.218C285.293 159.077 285.137 158.126 285.155 156.449C285.168 154.78 285.293 153.821 285.833 152.679C286.564 151.132 287.766 150.345 288.09 150.138C289.006 149.55 290.057 149.252 291.241 149.23C292.43 149.252 293.476 149.554 294.392 150.138C295.326 150.752 296.078 151.594 296.648 152.679C297.184 153.756 297.461 154.996 297.461 156.406C297.461 157.815 297.184 159.111 296.644 160.222M301.684 150.038C300.681 148.154 299.341 146.667 297.651 145.595C295.931 144.518 293.376 143.982 291.245 143.982C289.114 143.982 286.408 144.916 285.341 146.438C285.328 146.459 285.297 146.451 285.297 146.425V144.601C285.297 144.601 285.28 144.588 285.267 144.575L279.362 146.174C279.362 146.174 279.35 146.187 279.345 146.2V178.044C279.345 178.044 279.358 178.07 279.371 178.07H285.276C285.276 178.07 285.302 178.057 285.302 178.044V167.087C285.302 167.087 285.323 167.078 285.341 167.069C286.823 168.453 289.486 168.919 291.25 168.919C293.139 168.919 296.134 168.362 297.798 167.255H297.803C299.428 166.149 300.725 164.649 301.693 162.773C302.67 160.879 303.15 158.757 303.15 156.406C303.15 154.054 302.67 151.901 301.689 150.038" fill="#222222"/>
<path d="M59.7065 154.306H47.9447C47.9447 154.306 47.9188 154.293 47.9188 154.28C48.1047 152.184 50.1752 149.249 53.884 149.249C58.0812 149.249 59.5811 152.672 59.7281 154.285C59.7281 154.298 59.7151 154.311 59.7021 154.311M64.3316 150.049C63.3288 148.164 61.9845 146.681 60.2943 145.605C59.4341 145.065 58.3621 144.667 57.2426 144.39C56.123 144.127 54.9603 143.988 53.8883 143.988C51.7789 143.988 49.2069 144.524 47.4822 145.601C45.7964 146.677 44.4521 148.16 43.4449 150.044C42.4723 151.912 41.9839 154.038 41.9839 156.416C41.9839 158.793 42.4723 160.89 43.4449 162.779C44.4132 164.655 45.7143 166.159 47.3352 167.257L47.3439 167.265C49.0038 168.372 51.8869 168.921 53.8883 168.921C55.7772 168.921 58.7771 168.368 60.4413 167.265V167.257C62.0709 166.159 63.3634 164.655 64.3316 162.779C64.5305 162.407 64.6947 162.022 64.8503 161.624C64.8547 161.611 64.8503 161.594 64.833 161.59L59.3693 160.112C59.3693 160.112 59.3477 160.112 59.3434 160.124C58.8938 160.941 57.9731 162.156 57.0481 162.77C56.1231 163.353 55.077 163.652 53.8926 163.673C52.7082 163.652 51.6621 163.353 50.7371 162.77C49.8078 162.152 49.0556 161.309 48.485 160.224C48.1349 159.498 47.9015 158.698 47.7805 157.825C47.7805 157.812 47.7891 157.795 47.8064 157.795H65.7105C65.7105 157.795 65.7365 157.786 65.7365 157.773C65.771 157.332 65.8013 156.878 65.8013 156.416C65.8013 154.038 65.3129 151.916 64.3403 150.044" fill="#222222"/>
<path d="M348.489 146.672C348.489 146.672 348.446 146.677 348.446 146.655V144.667C348.446 144.667 348.429 144.654 348.416 144.641L343.008 146.115C343.008 146.115 342.995 146.132 342.991 146.141V168.419C342.991 168.419 343.004 168.445 343.017 168.445H348.424C348.424 168.445 348.45 168.432 348.45 168.419V154.185C348.45 151.418 350.845 149.668 353.836 149.668C354.295 149.668 354.779 149.72 355.09 149.793C355.107 149.793 355.116 149.785 355.116 149.767V144.139C355.116 144.139 355.103 144.113 355.09 144.113C352.678 144.165 350.158 144.961 348.489 146.672Z" fill="#222222"/>
<path d="M184.21 163.279C183.691 162.83 183.427 162.199 183.427 160.854V149.607C183.427 149.607 183.44 149.581 183.453 149.581H188.372C188.372 149.581 188.398 149.568 188.398 149.555V144.64C188.398 144.64 188.385 144.614 188.372 144.614H183.432V134.915C183.432 134.915 183.414 134.902 183.401 134.889L177.497 136.488C177.497 136.488 177.484 136.501 177.479 136.514V144.597C177.479 144.597 177.466 144.623 177.453 144.623H173.261C173.261 144.623 173.235 144.636 173.235 144.649V149.564C173.235 149.564 173.248 149.59 173.261 149.59H177.453C177.453 149.59 177.479 149.603 177.479 149.616V162.441C177.479 164.645 178.076 166.292 179.299 167.377C180.523 168.462 182.45 168.938 184.473 168.938C186.034 168.938 187.702 168.575 188.614 168.198C188.623 168.194 188.627 168.186 188.627 168.177V163.141C188.627 163.141 188.606 163.111 188.593 163.119C187.223 164.014 185.061 164.027 184.21 163.292" fill="#222222"/>
<path d="M252.321 140.153V134.922C252.321 134.922 252.308 134.896 252.295 134.896H229.255C229.255 134.896 229.229 134.909 229.229 134.922V168.427C229.229 168.427 229.242 168.453 229.255 168.453H252.295C252.295 168.453 252.321 168.44 252.321 168.427V163.196C252.321 163.196 252.308 163.17 252.295 163.17H235.385C235.385 163.17 235.359 163.158 235.359 163.145V153.873C235.359 153.873 235.372 153.847 235.385 153.847H250.994C250.994 153.847 251.02 153.834 251.02 153.821V148.586C251.02 148.586 251.007 148.56 250.994 148.56H235.385C235.385 148.56 235.359 148.547 235.359 148.534V140.2C235.359 140.2 235.372 140.174 235.385 140.174H252.295C252.295 140.174 252.321 140.161 252.321 140.148" fill="#222222"/>
<path d="M276.916 144.654C276.916 144.654 276.903 144.633 276.895 144.615H270.303C270.303 144.615 270.29 144.624 270.281 144.628L265.868 151.479C265.868 151.479 265.846 151.479 265.825 151.479L261.109 144.628C261.109 144.628 261.096 144.62 261.087 144.62H254.569C254.569 144.62 254.556 144.641 254.547 144.658L262.366 156.412C262.366 156.412 262.371 156.429 262.366 156.437L254.534 168.402C254.534 168.402 254.547 168.424 254.556 168.441H261.074C261.074 168.441 261.087 168.433 261.096 168.428L265.825 161.084C265.825 161.084 265.846 161.084 265.868 161.084L270.886 168.428C270.886 168.428 270.899 168.437 270.908 168.437H277.5C277.5 168.437 277.513 168.415 277.521 168.398L269.14 156.433C269.14 156.433 269.136 156.412 269.14 156.403L276.912 144.65L276.916 144.654Z" fill="#222222"/>
<path d="M0.525935 134.889H7.01845C7.01845 134.889 7.04006 134.897 7.04439 134.91L9.93619 151.103C10.6365 154.98 11.2935 158.36 11.8511 162.285H11.9462C12.5989 158.408 13.3943 155.118 14.2372 151.241L17.7774 134.91C17.7774 134.91 17.7903 134.893 17.8033 134.893H25.8001C25.8001 134.893 25.8217 134.902 25.826 134.915L29.1846 150.969C30.0275 154.798 30.9612 158.788 31.4756 162.199H31.5707C31.99 158.788 32.7378 155.175 33.4856 151.25L36.5633 134.91C36.5633 134.91 36.5763 134.889 36.5892 134.889H42.6106C42.6106 134.889 42.6365 134.902 42.6365 134.919L35.3097 168.419C35.3097 168.419 35.2968 168.436 35.2838 168.436H27.568C27.568 168.436 27.5464 168.428 27.5421 168.419L23.6215 150.074C22.731 146.011 22.4068 144.109 21.7974 140.326H21.6115C20.9588 144.113 20.5827 146.011 19.6966 150.121L15.776 168.419C15.776 168.419 15.763 168.436 15.7501 168.436H7.65819C7.65819 168.436 7.63658 168.428 7.63226 168.419L0.5 134.919C0.5 134.919 0.508645 134.889 0.525935 134.889Z" fill="#222222"/>
<path d="M99.2922 154.415C99.2922 154.415 95.7433 143.889 94.667 140.665H94.5287C93.2189 144.309 89.7609 154.415 89.7609 154.415H99.2922ZM91.3343 134.92H97.8744L111.473 168.403C111.473 168.403 111.469 168.437 111.452 168.437H105.149C105.149 168.437 105.132 168.433 105.128 168.42L101.397 159.788H87.7509L84.0637 168.42C84.0637 168.42 84.0507 168.437 84.0421 168.437H77.7873C77.7873 168.437 77.7571 168.42 77.7657 168.403L91.3343 134.92Z" fill="#222222"/>
<path d="M373.072 154.306H361.31C361.31 154.306 361.284 154.293 361.284 154.28C361.47 152.184 363.541 149.249 367.249 149.249C371.447 149.249 372.947 152.672 373.093 154.285C373.093 154.298 373.085 154.311 373.068 154.311M377.697 150.049C376.694 148.164 375.35 146.681 373.66 145.605C372.8 145.065 371.723 144.667 370.604 144.39C369.484 144.127 368.321 143.988 367.249 143.988C365.14 143.988 362.568 144.524 360.843 145.601C359.158 146.677 357.809 148.16 356.806 150.044C355.833 151.912 355.345 154.038 355.345 156.416C355.345 158.793 355.833 160.89 356.806 162.779C357.774 164.655 359.075 166.159 360.696 167.257L360.705 167.265C362.361 168.372 365.248 168.921 367.249 168.921C369.138 168.921 372.134 168.368 373.802 167.265V167.257C375.432 166.159 376.724 164.655 377.693 162.779C377.892 162.407 378.056 162.022 378.211 161.624C378.216 161.611 378.211 161.594 378.194 161.59L372.73 160.112C372.73 160.112 372.709 160.112 372.704 160.124C372.255 160.941 371.334 162.156 370.409 162.77C369.484 163.353 368.438 163.652 367.254 163.673C366.069 163.652 365.023 163.353 364.098 162.77C363.169 162.152 362.417 161.309 361.842 160.224C361.492 159.498 361.258 158.698 361.137 157.825C361.137 157.812 361.146 157.795 361.163 157.795H379.067C379.067 157.795 379.093 157.786 379.093 157.773C379.128 157.332 379.158 156.878 379.158 156.416C379.158 154.038 378.67 151.916 377.697 150.044" fill="#222222"/>
</svg>
