<svg width="382" height="140" viewBox="0 0 382 140" fill="none" xmlns="http://www.w3.org/2000/svg">
<path fill-rule="evenodd" clip-rule="evenodd" d="M168.75 60.6584L168.754 60.6611L168.758 60.6637C172.091 62.8854 175.775 64 179.786 64C182.12 64 184.343 63.6314 186.45 62.8885C188.581 62.1574 190.512 61.1788 192.236 59.9485C193.11 59.3455 193.908 58.7016 194.628 58.016C194.659 57.9856 194.713 58.0082 194.713 58.0523V62.5C194.713 62.7761 194.936 63 195.213 63H205.25C205.526 63 205.75 62.7761 205.75 62.5V15.6546C205.75 15.3249 205.437 15.0855 205.118 15.1722L195.118 17.8995C194.901 17.9588 194.75 18.1564 194.75 18.3819V19.6236C194.75 19.6689 194.694 19.6909 194.663 19.6581C192.687 17.5837 190.211 16.068 187.506 15.1132C185.389 14.3661 183.075 14 180.574 14C176.35 14 172.499 15.0743 169.048 17.2312L169.044 17.2336L169.04 17.236C165.658 19.3884 162.964 22.3662 160.956 26.139L160.953 26.1449C158.991 29.8844 158.025 34.1498 158.025 38.9124C158.025 43.6196 158.992 47.8814 160.949 51.6735C162.894 55.4403 165.492 58.4453 168.75 60.6584ZM193.345 46.5556L193.342 46.5603L193.34 46.5651C192.257 48.7315 190.753 50.4168 188.827 51.6476C186.919 52.8664 184.706 53.489 182.15 53.489C179.66 53.489 177.476 52.8701 175.566 51.6513C173.697 50.4219 172.189 48.7344 171.045 46.56C169.965 44.3396 169.412 41.7982 169.412 38.9124C169.412 36.0859 169.964 33.605 171.042 31.4448C172.187 29.268 173.696 27.579 175.566 26.3486C177.476 25.1298 179.66 24.511 182.15 24.511C184.706 24.511 186.919 25.1336 188.827 26.3524C190.753 27.5832 192.257 29.2685 193.34 31.4349L193.345 31.4446L193.35 31.4543C194.483 33.6127 195.063 36.0898 195.063 38.9124C195.063 41.7966 194.481 44.3359 193.345 46.5556Z" fill="white"/>
<path d="M216.101 18.6404C215.892 18.7056 215.75 18.8989 215.75 19.1176V62.5C215.75 62.7761 215.974 63 216.25 63H227.25C227.526 63 227.75 62.7761 227.75 62.5V15.6801C227.75 15.3428 227.423 15.1022 227.101 15.2029L216.101 18.6404Z" fill="white"/>
<path d="M238.098 18.3891C237.891 18.4552 237.75 18.6479 237.75 18.8656V62.5C237.75 62.7761 237.974 63 238.25 63H248.25C248.526 63 248.75 62.7761 248.75 62.5V34.2567C248.75 28.6808 253.5 24.5487 259.533 24.5487C265.177 24.5487 268.25 29.5593 268.25 34.696V62.5C268.25 62.7761 268.474 63 268.75 63H278.774C279.05 63 279.274 62.7761 279.274 62.5V34.4324C279.274 28.7578 283.786 24.5487 289.334 24.5487C295.435 24.5487 297.75 29.5904 297.75 34.8718V62.5C297.75 62.7761 297.974 63 298.25 63H308.25C308.526 63 308.75 62.7761 308.75 62.5V34.3445C308.75 29.9803 308.155 26.258 306.919 23.2173C305.737 20.164 303.904 17.8243 301.397 16.2758C298.955 14.7312 296.089 14 292.5 14C286.484 14 280.251 17.3976 276.718 22.2457C276.696 22.2765 276.648 22.2715 276.632 22.237C273.957 16.6156 268.51 14 262.5 14C257.525 14 252.283 16.3993 248.836 19.9366C248.805 19.9689 248.75 19.9465 248.75 19.9015V15.6838C248.75 15.3454 248.421 15.1047 248.098 15.2073L238.098 18.3891Z" fill="white"/>
<path d="M74.0562 15C73.6852 15 73.4434 15.3898 73.6083 15.7222L96.9238 62.7222C97.0082 62.8924 97.1818 63 97.3717 63H104.586C104.773 63 104.944 62.8957 105.03 62.7297L129.334 15.7297C129.506 15.3969 129.264 15 128.89 15H116.925C116.538 15 116.186 15.223 116.021 15.5727L101.616 46.0505C101.525 46.2415 101.254 46.2414 101.164 46.0503L86.7968 15.5736C86.6317 15.2234 86.2794 15 85.8922 15H74.0562Z" fill="white"/>
<path d="M138.101 18.6404C137.892 18.7056 137.75 18.8989 137.75 19.1176V62.5C137.75 62.7761 137.974 63 138.25 63H149.25C149.526 63 149.75 62.7761 149.75 62.5V15.6801C149.75 15.3428 149.423 15.1022 149.101 15.2029L138.101 18.6404Z" fill="white"/>
<path d="M137.75 6C137.75 2.68629 140.436 0 143.75 0C147.064 0 149.75 2.68629 149.75 6C149.75 9.31371 147.064 12 143.75 12C140.436 12 137.75 9.31371 137.75 6Z" fill="white"/>
<path d="M215.75 6C215.75 2.68629 218.436 0 221.75 0C225.064 0 227.75 2.68629 227.75 6C227.75 9.31371 225.064 12 221.75 12C218.436 12 215.75 9.31371 215.75 6Z" fill="white"/>
<path d="M113.675 107.82C113.571 107.853 113.5 107.949 113.5 108.059V129.75C113.5 129.888 113.612 130 113.75 130H119.25C119.388 130 119.5 129.888 119.5 129.75V106.34C119.5 106.171 119.336 106.051 119.175 106.101L113.675 107.82Z" fill="white"/>
<path d="M113.5 101.5C113.5 99.8431 114.843 98.5 116.5 98.5C118.157 98.5 119.5 99.8431 119.5 101.5C119.5 103.157 118.157 104.5 116.5 104.5C114.843 104.5 113.5 103.157 113.5 101.5Z" fill="white"/>
<path d="M313.43 96.5087L307.526 98.108C307.526 98.108 307.508 98.121 307.508 98.1339V130.073C307.508 130.073 307.521 130.099 307.534 130.099H313.439C313.439 130.099 313.465 130.086 313.465 130.073V96.5303C313.465 96.5303 313.448 96.5 313.435 96.5043" fill="white"/>
<path d="M159.46 110.315C158.872 108.802 157.964 107.639 156.719 106.874C155.509 106.109 153.996 105.746 152.215 105.746C149.233 105.746 146.229 107.432 144.478 109.835C144.465 109.848 144.443 109.848 144.435 109.831C143.108 107.043 140.367 105.746 137.389 105.746C134.921 105.746 132.357 106.935 130.65 108.69C130.633 108.707 130.607 108.694 130.607 108.672V106.273C130.607 106.273 130.589 106.243 130.576 106.248L125.169 107.722C125.169 107.722 125.152 107.734 125.152 107.747V130.026C125.152 130.026 125.165 130.052 125.178 130.052H130.585C130.585 130.052 130.611 130.039 130.611 130.026V115.792C130.611 113.025 132.967 110.976 135.958 110.976C138.759 110.976 140.034 113.462 140.034 116.012V130.026C140.034 130.026 140.047 130.052 140.06 130.052H145.481C145.481 130.052 145.507 130.039 145.507 130.026V115.878C145.507 113.064 147.992 110.976 150.746 110.976C153.771 110.976 154.921 113.479 154.921 116.099V130.026C154.921 130.026 154.934 130.052 154.947 130.052H160.355C160.355 130.052 160.381 130.039 160.381 130.026V115.835C160.381 113.669 160.087 111.824 159.473 110.315" fill="white"/>
<path d="M208.69 121.839C208.119 122.924 207.367 123.767 206.433 124.381C205.517 124.964 204.467 125.267 203.282 125.289C202.098 125.267 201.047 124.964 200.131 124.381C199.197 123.767 198.445 122.924 197.875 121.839C197.334 120.733 197.062 119.466 197.062 118.027C197.062 116.587 197.339 115.381 197.875 114.301C198.445 113.216 199.197 112.373 200.131 111.759C201.047 111.171 202.098 110.873 203.282 110.851C204.467 110.873 205.517 111.175 206.433 111.759C207.367 112.373 208.119 113.216 208.69 114.301C209.226 115.377 209.502 116.617 209.502 118.027C209.502 119.436 209.226 120.733 208.69 121.839ZM213.726 111.659C212.723 109.775 211.383 108.288 209.693 107.216C207.972 106.14 205.418 105.604 203.287 105.604C201.156 105.604 198.605 106.14 196.88 107.216C195.195 108.292 193.85 109.779 192.848 111.659C191.871 113.527 191.386 115.654 191.386 118.031C191.386 120.408 191.866 122.505 192.843 124.398C193.811 126.278 195.108 127.774 196.734 128.881C198.398 129.992 201.281 130.545 203.282 130.545C205.171 130.545 208.167 129.987 209.831 128.881H209.835C211.461 127.774 212.757 126.274 213.726 124.398C214.702 122.505 215.182 120.382 215.182 118.031C215.182 115.679 214.702 113.527 213.721 111.664" fill="white"/>
<path d="M334.136 121.839C333.565 122.924 332.813 123.767 331.879 124.381C330.963 124.964 329.913 125.267 328.728 125.289C327.544 125.267 326.493 124.964 325.577 124.381C324.643 123.767 323.891 122.924 323.321 121.839C322.78 120.733 322.508 119.466 322.508 118.027C322.508 116.587 322.785 115.381 323.321 114.301C323.891 113.216 324.643 112.373 325.577 111.759C326.493 111.171 327.544 110.873 328.728 110.851C329.917 110.873 330.963 111.175 331.879 111.759C332.813 112.373 333.565 113.216 334.136 114.301C334.672 115.377 334.948 116.617 334.948 118.027C334.948 119.436 334.672 120.733 334.136 121.839ZM339.167 111.659C338.164 109.775 336.824 108.288 335.134 107.216C333.414 106.14 330.859 105.604 328.728 105.604C326.597 105.604 324.047 106.14 322.322 107.216C320.636 108.292 319.292 109.779 318.289 111.659C317.312 113.527 316.828 115.654 316.828 118.031C316.828 120.408 317.308 122.505 318.285 124.398C319.253 126.278 320.55 127.774 322.175 128.881C323.839 129.992 326.723 130.545 328.724 130.545C330.613 130.545 333.608 129.987 335.273 128.881H335.277C336.902 127.774 338.199 126.274 339.167 124.398C340.144 122.505 340.624 120.382 340.624 118.031C340.624 115.679 340.144 113.527 339.163 111.664" fill="white"/>
<path d="M297.648 121.829C297.078 122.914 296.326 123.757 295.392 124.367C294.476 124.95 293.425 125.253 292.241 125.274C291.057 125.253 290.006 124.95 289.09 124.367C288.766 124.159 287.568 123.373 286.833 121.829C286.293 120.688 286.137 119.737 286.155 118.06C286.168 116.392 286.293 115.432 286.833 114.291C287.564 112.743 288.766 111.957 289.09 111.749C290.006 111.161 291.057 110.863 292.241 110.841C293.43 110.863 294.476 111.166 295.392 111.749C296.326 112.363 297.078 113.206 297.648 114.291C298.184 115.367 298.461 116.608 298.461 118.017C298.461 119.426 298.184 120.723 297.644 121.834M302.684 111.65C301.681 109.765 300.341 108.278 298.651 107.206C296.931 106.13 294.376 105.594 292.245 105.594C290.114 105.594 287.408 106.527 286.341 108.049C286.328 108.071 286.297 108.062 286.297 108.036V106.212C286.297 106.212 286.28 106.199 286.267 106.186L280.362 107.785C280.362 107.785 280.35 107.798 280.345 107.811V139.656C280.345 139.656 280.358 139.682 280.371 139.682H286.276C286.276 139.682 286.302 139.669 286.302 139.656V128.698C286.302 128.698 286.323 128.689 286.341 128.681C287.823 130.064 290.486 130.531 292.25 130.531C294.139 130.531 297.134 129.973 298.798 128.867H298.803C300.428 127.76 301.725 126.26 302.693 124.384C303.67 122.491 304.15 120.368 304.15 118.017C304.15 115.665 303.67 113.513 302.689 111.65" fill="white"/>
<path d="M60.7065 115.918H48.9447C48.9447 115.918 48.9188 115.905 48.9188 115.892C49.1047 113.795 51.1752 110.86 54.884 110.86C59.0812 110.86 60.5811 114.284 60.7281 115.896C60.7281 115.909 60.7151 115.922 60.7021 115.922M65.3316 111.66C64.3288 109.775 62.9845 108.293 61.2943 107.216C60.4341 106.676 59.3621 106.278 58.2426 106.002C57.123 105.738 55.9603 105.6 54.8883 105.6C52.7789 105.6 50.2069 106.136 48.4822 107.212C46.7964 108.288 45.4521 109.771 44.4449 111.656C43.4723 113.523 42.9839 115.65 42.9839 118.027C42.9839 120.404 43.4723 122.501 44.4449 124.39C45.4132 126.266 46.7143 127.77 48.3352 128.868L48.3439 128.877C50.0038 129.983 52.8869 130.532 54.8883 130.532C56.7772 130.532 59.7771 129.979 61.4413 128.877V128.868C63.0709 127.77 64.3634 126.266 65.3316 124.39C65.5305 124.018 65.6947 123.633 65.8503 123.236C65.8547 123.223 65.8503 123.205 65.833 123.201L60.3693 121.723C60.3693 121.723 60.3477 121.723 60.3434 121.736C59.8938 122.553 58.9731 123.767 58.0481 124.381C57.1231 124.965 56.077 125.263 54.8926 125.285C53.7082 125.263 52.6621 124.965 51.7371 124.381C50.8078 123.763 50.0556 122.92 49.485 121.835C49.1349 121.109 48.9015 120.309 48.7805 119.436C48.7805 119.423 48.7891 119.406 48.8064 119.406H66.7105C66.7105 119.406 66.7365 119.397 66.7365 119.384C66.771 118.943 66.8013 118.49 66.8013 118.027C66.8013 115.65 66.3129 113.527 65.3403 111.656" fill="white"/>
<path d="M349.489 108.284C349.489 108.284 349.446 108.288 349.446 108.266V106.278C349.446 106.278 349.429 106.265 349.416 106.252L344.008 107.726C344.008 107.726 343.995 107.743 343.991 107.752V130.03C343.991 130.03 344.004 130.056 344.017 130.056H349.424C349.424 130.056 349.45 130.043 349.45 130.03V115.796C349.45 113.03 351.845 111.279 354.836 111.279C355.295 111.279 355.779 111.331 356.09 111.404C356.107 111.404 356.116 111.396 356.116 111.379V105.751C356.116 105.751 356.103 105.725 356.09 105.725C353.678 105.776 351.158 106.572 349.489 108.284Z" fill="white"/>
<path d="M185.21 124.891C184.691 124.441 184.427 123.81 184.427 122.466V111.218C184.427 111.218 184.44 111.192 184.453 111.192H189.372C189.372 111.192 189.398 111.179 189.398 111.167V106.252C189.398 106.252 189.385 106.226 189.372 106.226H184.432V96.5259C184.432 96.5259 184.414 96.513 184.401 96.5L178.497 98.0994C178.497 98.0994 178.484 98.1123 178.479 98.1253V106.209C178.479 106.209 178.466 106.234 178.453 106.234H174.261C174.261 106.234 174.235 106.247 174.235 106.26V111.175C174.235 111.175 174.248 111.201 174.261 111.201H178.453C178.453 111.201 178.479 111.214 178.479 111.227V124.052C178.479 126.257 179.076 127.904 180.299 128.989C181.523 130.073 183.45 130.549 185.473 130.549C187.034 130.549 188.702 130.186 189.614 129.81C189.623 129.805 189.627 129.797 189.627 129.788V124.752C189.627 124.752 189.606 124.722 189.593 124.731C188.223 125.626 186.061 125.639 185.21 124.904" fill="white"/>
<path d="M253.321 101.764V96.5337C253.321 96.5337 253.308 96.5078 253.295 96.5078H230.255C230.255 96.5078 230.229 96.5208 230.229 96.5337V130.038C230.229 130.038 230.242 130.064 230.255 130.064H253.295C253.295 130.064 253.321 130.051 253.321 130.038V124.808C253.321 124.808 253.308 124.782 253.295 124.782H236.385C236.385 124.782 236.359 124.769 236.359 124.756V115.484C236.359 115.484 236.372 115.458 236.385 115.458H251.994C251.994 115.458 252.02 115.445 252.02 115.432V110.197C252.02 110.197 252.007 110.171 251.994 110.171H236.385C236.385 110.171 236.359 110.159 236.359 110.146V101.812C236.359 101.812 236.372 101.786 236.385 101.786H253.295C253.295 101.786 253.321 101.773 253.321 101.76" fill="white"/>
<path d="M277.916 106.265C277.916 106.265 277.903 106.244 277.895 106.227H271.303C271.303 106.227 271.29 106.235 271.281 106.24L266.868 113.091C266.868 113.091 266.846 113.091 266.825 113.091L262.109 106.24C262.109 106.24 262.096 106.231 262.087 106.231H255.569C255.569 106.231 255.556 106.252 255.547 106.27L263.366 118.023C263.366 118.023 263.371 118.04 263.366 118.049L255.534 130.014C255.534 130.014 255.547 130.035 255.556 130.053H262.074C262.074 130.053 262.087 130.044 262.096 130.04L266.825 122.696C266.825 122.696 266.846 122.696 266.868 122.696L271.886 130.04C271.886 130.04 271.899 130.048 271.908 130.048H278.5C278.5 130.048 278.513 130.027 278.521 130.009L270.14 118.044C270.14 118.044 270.136 118.023 270.14 118.014L277.912 106.261L277.916 106.265Z" fill="white"/>
<path d="M1.52594 96.5H8.01845C8.01845 96.5 8.04006 96.5086 8.04439 96.5216L10.9362 112.714C11.6365 116.591 12.2935 119.972 12.8511 123.897H12.9462C13.5989 120.019 14.3943 116.73 15.2372 112.852L18.7774 96.5216C18.7774 96.5216 18.7903 96.5043 18.8033 96.5043H26.8001C26.8001 96.5043 26.8217 96.513 26.826 96.5259L30.1846 112.58C31.0275 116.41 31.9612 120.4 32.4756 123.81H32.5707C32.99 120.4 33.7378 116.786 34.4856 112.861L37.5633 96.5216C37.5633 96.5216 37.5763 96.5 37.5892 96.5H43.6106C43.6106 96.5 43.6365 96.513 43.6365 96.5303L36.3097 130.03C36.3097 130.03 36.2968 130.048 36.2838 130.048H28.568C28.568 130.048 28.5464 130.039 28.5421 130.03L24.6215 111.685C23.731 107.622 23.4068 105.72 22.7974 101.938H22.6115C21.9588 105.724 21.5827 107.622 20.6966 111.733L16.776 130.03C16.776 130.03 16.763 130.048 16.7501 130.048H8.65819C8.65819 130.048 8.63658 130.039 8.63226 130.03L1.5 96.5303C1.5 96.5303 1.50865 96.5 1.52594 96.5Z" fill="white"/>
<path d="M100.292 116.026C100.292 116.026 96.7433 105.501 95.667 102.276H95.5287C94.2189 105.92 90.7609 116.026 90.7609 116.026H100.292ZM92.3343 96.5312H98.8744L112.473 130.014C112.473 130.014 112.469 130.049 112.452 130.049H106.149C106.149 130.049 106.132 130.044 106.128 130.031L102.397 121.399H88.7509L85.0637 130.031C85.0637 130.031 85.0507 130.049 85.0421 130.049H78.7873C78.7873 130.049 78.7571 130.031 78.7657 130.014L92.3343 96.5312Z" fill="white"/>
<path d="M374.072 115.918H362.31C362.31 115.918 362.284 115.905 362.284 115.892C362.47 113.795 364.541 110.86 368.249 110.86C372.447 110.86 373.947 114.284 374.093 115.896C374.093 115.909 374.085 115.922 374.068 115.922M378.697 111.66C377.694 109.775 376.35 108.293 374.66 107.216C373.8 106.676 372.723 106.278 371.604 106.002C370.484 105.738 369.321 105.6 368.249 105.6C366.14 105.6 363.568 106.136 361.843 107.212C360.158 108.288 358.809 109.771 357.806 111.656C356.833 113.523 356.345 115.65 356.345 118.027C356.345 120.404 356.833 122.501 357.806 124.39C358.774 126.266 360.075 127.77 361.696 128.868L361.705 128.877C363.361 129.983 366.248 130.532 368.249 130.532C370.138 130.532 373.134 129.979 374.802 128.877V128.868C376.432 127.77 377.724 126.266 378.693 124.39C378.892 124.018 379.056 123.633 379.211 123.236C379.216 123.223 379.211 123.205 379.194 123.201L373.73 121.723C373.73 121.723 373.709 121.723 373.704 121.736C373.255 122.553 372.334 123.767 371.409 124.381C370.484 124.965 369.438 125.263 368.254 125.285C367.069 125.263 366.023 124.965 365.098 124.381C364.169 123.763 363.417 122.92 362.842 121.835C362.492 121.109 362.258 120.309 362.137 119.436C362.137 119.423 362.146 119.406 362.163 119.406H380.067C380.067 119.406 380.093 119.397 380.093 119.384C380.128 118.943 380.158 118.49 380.158 118.027C380.158 115.65 379.67 113.527 378.697 111.656" fill="white"/>
</svg>
