<svg width="471" height="128" viewBox="0 0 471 128" fill="none" xmlns="http://www.w3.org/2000/svg">
<g clip-path="url(#clip0_989_74177)">
<path fill-rule="evenodd" clip-rule="evenodd" d="M191 121.317L191.008 121.322L191.016 121.327C197.681 125.771 205.051 128 213.071 128C217.739 128 222.187 127.263 226.4 125.777C230.662 124.315 234.524 122.358 237.972 119.897C239.719 118.691 241.315 117.403 242.755 116.032C242.819 115.971 242.925 116.016 242.925 116.105V125C242.925 125.552 243.373 126 243.925 126H264C264.552 126 265 125.552 265 125V31.3093C265 30.6499 264.373 30.171 263.737 30.3445L243.737 35.799C243.302 35.9177 243 36.3128 243 36.7638V39.2472C243 39.3378 242.889 39.3818 242.826 39.3162C238.875 35.1674 233.922 32.1361 228.511 30.2264C224.278 28.7322 219.649 28 214.648 28C206.2 28 198.498 30.1485 191.596 34.4624L191.588 34.4672L191.58 34.4719C184.816 38.7769 179.428 44.7324 175.412 52.2781L175.406 52.2897C171.482 59.7688 169.551 68.2996 169.551 77.8249C169.551 87.2391 171.484 95.7628 175.399 103.347C179.287 110.881 184.484 116.891 191 121.317ZM240.189 93.1111L240.184 93.1206L240.18 93.1301C238.013 97.4629 235.007 100.834 231.154 103.295C227.338 105.733 222.912 106.978 217.8 106.978C212.819 106.978 208.453 105.74 204.632 103.303C200.895 100.844 197.879 97.4688 195.59 93.12C193.43 88.6792 192.324 83.5965 192.324 77.8249C192.324 72.1719 193.429 67.21 195.585 62.8896C197.874 58.5361 200.892 55.158 204.632 52.6972C208.453 50.2597 212.819 49.022 217.8 49.022C222.912 49.022 227.338 50.2672 231.154 52.7047C235.007 55.1664 238.013 58.537 240.18 62.8699L240.189 62.8893L240.199 62.9085C242.466 67.2253 243.626 72.1797 243.626 77.8249C243.626 83.5932 242.463 88.6719 240.189 93.1111Z" fill="black"/>
<path d="M285.702 37.2807C285.284 37.4112 285 37.7978 285 38.2352V125C285 125.552 285.448 126 286 126H308C308.552 126 309 125.552 309 125V31.3602C309 30.6856 308.346 30.2045 307.702 30.4057L285.702 37.2807Z" fill="black"/>
<path d="M329.697 36.7783C329.282 36.9103 329 37.2957 329 37.7312V125C329 125.552 329.448 126 330 126H350C350.552 126 351 125.552 351 125V68.5133C351 57.3616 360.5 49.0974 372.566 49.0974C383.854 49.0974 390 59.1186 390 69.392V125C390 125.552 390.448 126 391 126H411.048C411.6 126 412.048 125.552 412.048 125V68.8648C412.048 57.5157 421.072 49.0974 432.167 49.0974C444.369 49.0974 449 59.1808 449 69.7435V125C449 125.552 449.448 126 450 126H470C470.552 126 471 125.552 471 125V68.6891C471 59.9606 469.811 52.516 467.339 46.4346C464.973 40.3281 461.307 35.6485 456.294 32.5515C451.41 29.4624 445.678 28 438.5 28C426.467 28 414.002 34.7951 406.936 44.4914C406.891 44.553 406.796 44.5429 406.763 44.4741C401.413 33.2311 390.519 28 378.5 28C368.551 28 358.067 32.7985 351.172 39.8732C351.11 39.9377 351 39.893 351 39.803V31.3676C351 30.6908 350.342 30.2094 349.697 30.4147L329.697 36.7783Z" fill="black"/>
<path d="M1.61236 30C0.870354 30 0.386786 30.7797 0.716534 31.4444L47.3476 125.444C47.5164 125.785 47.8635 126 48.2434 126H62.6722C63.0461 126 63.3887 125.791 63.5604 125.459L112.168 31.4593C112.512 30.7937 112.029 30 111.279 30H87.3504C86.5769 30 85.8728 30.446 85.5422 31.1454L56.7315 92.1011C56.5509 92.4831 56.0073 92.4828 55.8271 92.1006L27.0935 31.1472C26.7634 30.4469 26.0587 30 25.2845 30H1.61236Z" fill="black"/>
<path d="M129.702 37.2807C129.284 37.4112 129 37.7978 129 38.2352V125C129 125.552 129.448 126 130 126H152C152.552 126 153 125.552 153 125V31.3602C153 30.6856 152.346 30.2045 151.702 30.4057L129.702 37.2807Z" fill="black"/>
<path d="M129 12C129 5.37258 134.373 0 141 0C147.627 0 153 5.37258 153 12C153 18.6274 147.627 24 141 24C134.373 24 129 18.6274 129 12Z" fill="black"/>
<path d="M285 12C285 5.37258 290.373 0 297 0C303.627 0 309 5.37258 309 12C309 18.6274 303.627 24 297 24C290.373 24 285 18.6274 285 12Z" fill="black"/>
</g>
<defs>
<clipPath id="clip0_989_74177">
<rect width="471" height="128" fill="white"/>
</clipPath>
</defs>
</svg>
